<?xml version="1.0" encoding="utf-8"?>
<!-- Generator: Adobe Illustrator 15.1.0, SVG Export Plug-In . SVG Version: 6.00 Build 0)  -->
<!DOCTYPE svg PUBLIC "-//W3C//DTD SVG 1.0//EN" "http://www.w3.org/TR/2001/REC-SVG-20010904/DTD/svg10.dtd">
<svg version="1.0" id="carted3js" xmlns="http://www.w3.org/2000/svg" xmlns:xlink="http://www.w3.org/1999/xlink" x="0px" y="0px"
	 width="180px" height="90px" viewBox="0 0 180 90" enable-background="new 0 0 180 90" xml:space="preserve">
<polygon fill="#D1D1D1" points="-164.564,-51.229 -168.643,-49.898 -166.691,-48.5 -164.994,-48.162 -163.619,-48.294 
	-162.641,-47.962 -162.199,-48.348 -161.721,-48.469 -162.033,-48.27 -161.285,-47.98 -161.158,-47.61 -161.631,-47.385 
	-162.402,-47.491 -163.172,-46.956 -163.699,-47.098 -164.84,-46.979 -166.523,-44.924 -165.709,-44.434 -165.703,-43.867 
	-166.488,-43.962 -168.145,-43.659 -166.201,-42.896 -165.191,-43.162 -165.309,-43.654 -163.934,-42.941 -162.633,-43.141 
	-162.268,-42.932 -162.301,-41.817 -161.232,-41.816 -160.514,-42.105 -159.98,-41.389 -159.627,-41.864 -159.078,-41.438 
	-158.486,-41.836 -158.268,-41.719 -157.781,-41.848 -158.062,-41.008 -165.404,-38.162 -164.963,-37.737 -160.234,-38.891 
	-159.529,-38.817 -152.846,-42.205 -153.539,-42.675 -152.006,-43.604 -152.014,-42.235 -147.615,-43.197 -147.826,-43.954 
	-147.166,-44.089 -134.352,-41.288 -130.521,-38.018 -130.514,-37.854 -129.305,-37.21 -129.131,-36.509 -127.85,-36.143 
	-127.436,-34.883 -123.277,-33.524 -122.893,-32.798 -123.756,-32.958 -123.51,-33.011 -125.756,-34.442 -128.357,-34.833 
	-128.443,-34.643 -128.059,-34.198 -124.818,-33.077 -120.51,-22.969 -119.596,-22.907 -119.234,-22.735 -118.789,-22.71 
	-118.695,-22.553 -117.615,-22.174 -117.395,-21.752 -116.994,-21.77 -114.162,-19.544 -114.199,-19.276 -114.57,-19.057 
	-114.982,-19.089 -115.055,-19.045 -113.598,-18.408 -113.465,-18.484 -112.301,-18.043 -112.182,-17.308 -110.031,-16.214 
	-109.854,-16.211 -109.434,-16.42 -109.408,-16.521 -110.174,-17.036 -110.654,-17.055 -112.961,-19.46 -113.139,-19.451 
	-114.936,-21.248 -114.775,-21.497 -114.205,-21.328 -113.871,-21.354 -111.178,-19.174 -110.641,-19.125 -109.801,-18.43 
	-109.291,-18.294 -109.443,-17.936 -105.266,-15.425 -105.271,-15.23 -105.5,-15.085 -105.396,-14.927 -105.73,-14.872 
	-96.557,-12.247 -93.875,-12.401 -87.904,-10.896 -87.795,-11.021 -87.49,-10.977 -87.316,-10.81 -87.393,-10.771 -87.557,-10.852 
	-87.67,-10.769 -85.713,-9.797 -85.941,-9.694 -85.658,-9.619 -85.797,-9.29 -85.66,-9.183 -85.34,-9.131 -85.111,-8.983 
	-84.91,-9.11 -84.977,-9.265 -84.713,-9.17 -84.646,-9.015 -83.633,-8.717 -83.596,-8.6 -83.711,-8.508 -82.85,-8.2 -82.818,-8.315 
	-81.721,-8.22 -81.52,-8.007 -81.189,-7.976 -81.059,-8.065 -80.887,-7.751 -80.004,-7.923 -80.48,-8.209 -80.383,-8.318 
	-79.76,-8.47 -79.557,-8.654 -79.119,-8.688 -78.621,-8.54 -78.436,-8.366 -78.182,-8.329 -78.428,-8.188 -77.318,-7.028 
	-77.531,-6.891 -77.307,-6.411 -77.496,-6.107 -77.129,-5.983 -77.932,-5.379 -78.428,-5.344 -78.662,-5.154 -78.617,-4.893 
	-78.99,-4.854 -78.855,-4.691 -80.09,-4.372 -80.02,-4.159 -80.582,-3.498 -80.934,-3.418 -80.766,-2.945 -80.967,-2.797 
	-80.369,-2.568 -79.986,-2.811 -79.77,-2.583 -81.41,-1.496 -80.926,-0.995 -81.25,-0.761 -76.26,3.162 -76.424,3.316 
	-71.461,5.234 -71.375,5.46 -70.371,5.776 -73.166,16.929 -73.588,16.951 -74.33,21.102 -73.701,21.203 -73.389,20.315 
	-72.717,20.504 -73.24,21.992 -74.352,21.735 -75.645,23.627 -74.127,23.85 -75.607,25.197 -74.945,28.143 -71.43,29.528 
	-71.008,29.508 -70.844,28.69 -69.461,28.169 -68.15,28.219 -69.139,26.859 -65.641,24.077 -66.596,23.922 -67.58,23.365 
	-67.293,22.802 -66.51,22.422 -65.564,22.419 -65.182,21.296 -63.459,20.63 -63.756,20.264 -64.303,20.486 -64.979,20.273 
	-65.117,19.58 -64.732,19.399 -63.77,19.651 -62.146,19.312 -62.336,18.057 -57.75,17.627 -56.736,16.464 -57.361,16.183 
	-57.225,15.74 -58.494,15.195 -58.428,14.866 -57.818,15.215 -57.139,15.194 -56.215,15.467 -55.674,15.399 -54.936,15.526 
	-48.889,11.665 -48.496,10.021 -41.988,8.355 -41.754,8.017 -40.945,7.771 -38.674,2.906 -38.424,2.895 -35.129,0.745 
	-35.236,-1.113 -43.42,-2.727 -44.58,-2.564 -44.418,-2.854 -44.906,-3.16 -47.824,-3.667 -48.584,-3.324 -48.621,-3.848 
	-50.389,-3.93 -50.699,-4.088 -49.947,-4.518 -49.973,-4.877 -50.508,-4.963 -51.316,-6.168 -51.656,-6.144 -55.842,-7.085 
	-55.949,-6.99 -57.146,-7.095 -58.078,-7.534 -58.455,-7.547 -58.482,-7.818 -60.15,-8.479 -60.672,-8.468 -60.83,-8.892 
	-62.389,-9.191 -62.729,-9.442 -61.881,-9.599 -64.318,-9.559 -64.328,-9.425 -64.891,-9.26 -68.195,-9.513 -68.232,-9.688 
	-68.883,-9.985 -69.584,-9.994 -69.943,-10.369 -70.295,-10.2 -70.156,-9.949 -71.4,-9.733 -71.35,-9.331 -71.039,-9.145 
	-71.266,-8.762 -71.695,-8.729 -72.074,-9.146 -71.633,-9.456 -71.619,-9.733 -71.945,-9.975 -71.359,-10.036 -71.137,-10.343 
	-71.4,-10.483 -71.756,-10.517 -73.414,-9.87 -74.197,-9.915 -74.275,-9.804 -74.906,-9.794 -75.48,-9.547 -75.674,-8.923 
	-76.836,-8.498 -79.059,-8.93 -79.021,-8.981 -79.572,-9.013 -81.439,-8.576 -81.715,-8.706 -81.809,-8.663 -82.207,-8.688 
	-82.188,-8.8 -83.809,-9.805 -83.855,-9.948 -83.65,-10.085 -83.627,-10.454 -83.473,-10.507 -83.412,-11.338 -83.182,-11.521 
	-83.232,-11.839 -83.146,-11.892 -87.523,-12.325 -87.615,-12.369 -87.9,-12.361 -88.121,-12.266 -88.518,-12.356 -88.604,-12.275 
	-88.93,-12.374 -88.732,-12.562 -88.551,-12.579 -88.24,-12.999 -88.303,-13.052 -88.197,-13.247 -88.285,-13.331 -88.105,-13.718 
	-88.297,-13.721 -88.301,-13.802 -88.09,-13.811 -87.838,-13.669 -87.436,-14.338 -87.621,-14.435 -86.811,-15.374 -87.053,-15.492 
	-90.279,-15.188 -90.771,-14.233 -94.426,-13.606 -94.84,-13.836 -95.9,-13.981 -97.703,-17.04 -97.289,-17.767 -96.584,-17.799 
	-96.842,-18.999 -93.801,-20.045 -91.727,-20.01 -91.016,-19.707 -90.066,-19.684 -89.76,-19.775 -89.357,-19.681 -88.691,-19.956 
	-89.066,-20.166 -89.053,-20.387 -89.078,-20.41 -86.453,-20.451 -85.076,-19.98 -84.09,-20.248 -83.029,-19.52 -83.229,-19.135 
	-81.453,-17.42 -80.646,-17.306 -80.096,-17.439 -80.996,-21.205 -75.355,-23.801 -75.648,-24.82 -73.615,-27.035 -71.201,-27.344 
	-71.641,-27.539 -69.656,-27.775 -69.641,-27.814 -69.629,-27.814 -69.494,-28.182 -70.459,-28.685 -70.459,-28.738 
	-69.879,-29.222 -66.527,-30.118 -66.775,-30.466 -64.426,-30.551 -66.16,-29.942 -66.123,-29.327 -65.363,-29.274 -59.803,-31.021 
	-60.447,-31.292 -60.518,-31.845 -61.52,-30.993 -63.174,-30.884 -64.471,-31.259 -65.115,-32.666 -64.17,-33.194 -65.057,-33.585 
	-69.24,-32.472 -69.268,-32.488 -70.256,-31.827 -71.104,-31.702 -66.398,-34.39 -60.031,-34.4 -55.684,-35.986 -55.756,-36.954 
	-56.158,-37.285 -56.936,-37.402 -57.334,-38.157 -61.799,-39.737 -61.396,-40.334 -64.584,-43.717 -67.648,-41.545 
	-68.375,-42.135 -69.287,-42.293 -69.59,-44.49 -71.373,-44.572 -73.84,-46.016 -74.668,-45.721 -77.41,-46.137 -78.107,-45.875 
	-77.338,-43.21 -78.516,-42.139 -76.621,-40.559 -77.096,-39.267 -79.828,-38.195 -78.602,-36.341 -79.143,-35.468 -79.912,-35.196 
	-82.125,-36.96 -82.271,-38.632 -90.896,-40.639 -92.297,-40.448 -93.217,-42.115 -94.684,-42.283 -91.932,-46.46 -90.77,-46.604 
	-90.703,-47.358 -89.914,-47.857 -88.482,-47.938 -85.768,-51.017 -84.734,-50.623 -81.387,-51.749 -81.26,-52.409 -81.965,-53.15 
	-81.279,-54.626 -82.621,-55.364 -85.521,-55.702 -87.35,-51.868 -88.318,-52.789 -88.02,-53.834 -89.215,-54.77 -90.551,-53.634 
	-90.547,-55.123 -92.406,-55.427 -91.52,-56.175 -93.891,-58.688 -95.209,-58.956 -96.471,-56.018 -94.232,-54.49 -94.686,-53.054 
	-95.488,-53.093 -96.127,-51.995 -96.119,-53.301 -97.67,-53.782 -98.559,-53.534 -98.443,-52.663 -101.453,-52.479 
	-103.221,-53.104 -104.338,-52.991 -106.148,-54.101 -108.168,-53.89 -108.812,-53.403 -107.793,-52.809 -108.881,-52.115 
	-109.945,-52.938 -115.305,-52.83 -113.898,-53.526 -122.684,-55.661 -123.061,-55.222 -124.289,-54.979 -124.424,-56.124 
	-125.758,-55.099 -127.447,-56.462 -128.137,-56.628 -128.359,-55.9 -129.107,-55.546 -129.795,-56.179 -132.928,-55.135 
	-134.414,-55.317 -136.504,-54.241 -140.627,-55.375 -140.627,-55.573 -143.553,-56.319 -144.896,-56.068 -149.695,-56.899 
	-150.732,-56.74 -151.889,-56.94 -151.822,-57.34 -154.062,-57.467 -154.287,-57.31 -154.809,-57.828 -156.67,-58.248 
	-158.24,-57.37 -159.115,-57.473 -164.588,-54.45 -166.453,-54.401 -167.205,-53.393 -162.256,-50.613 -163.387,-50.587 
	-163.254,-51.229 "/>
<rect x="-179.998" y="-90" fill="none" stroke="#000000" stroke-width="0.1" stroke-miterlimit="10" width="359.998" height="180"/>
</svg>
