<?xml version="1.0" encoding="utf-8"?>
<!-- Generator: Adobe Illustrator 15.1.0, SVG Export Plug-In . SVG Version: 6.00 Build 0)  -->
<!DOCTYPE svg PUBLIC "-//W3C//DTD SVG 1.0//EN" "http://www.w3.org/TR/2001/REC-SVG-20010904/DTD/svg10.dtd">
<svg version="1.0" id="carted3js" xmlns="http://www.w3.org/2000/svg" xmlns:xlink="http://www.w3.org/1999/xlink" x="0px" y="0px"
	 width="180px" height="90px" viewBox="0 0 180 90" enable-background="new 0 0 180 90" xml:space="preserve">
<g>
	<polygon fill="#D1D1D1" points="-167.021,87.224 -169.949,83.659 -172.889,84.537 -174.383,87.024 -175.828,84.826 -176.084,84.73 
		-177.256,86.582 -179.057,84.936 -179.941,88.068 -180,88.023 -180,90 -162.572,90 	"/>
	<polygon fill="#D1D1D1" points="-97.885,51.269 -101.703,50.676 -102.33,50.97 -101.803,51.67 -100.783,52.008 -96.199,52.042 
		-96.787,51.07 	"/>
	<polygon fill="#D1D1D1" points="-160.244,65.208 -161.244,64.385 -163.105,63.981 -163.713,64.949 -161.127,67.821 
		-159.207,67.427 	"/>
	<polygon fill="#D1D1D1" points="-121.211,53.792 -122.406,53.471 -122.621,54.082 -121.623,54.744 -120.23,54.893 -118.723,53.757 
		-119.92,54.082 	"/>
	<polygon fill="#D1D1D1" points="-43.92,64.64 -46.662,62.995 -48.152,63.533 -48.66,63.533 -54.164,70.869 -52.852,71.956 
		-50.48,72.153 -43.334,68.98 	"/>
	<polygon fill="#D1D1D1" points="-71.074,52.012 -68.783,51.439 -70.254,46.271 -71.174,46.499 -72.074,49.81 -73.23,49.746 
		-75.012,50.581 -74.953,51.271 -74.189,51.774 -71.898,51.305 -72.389,51.979 	"/>
	<polygon fill="#D1D1D1" points="175.986,85.035 173.223,86.371 172.283,84.438 169.404,83.372 159.787,71.886 161.768,66.482 
		166.994,65.36 166.604,64.229 164.744,63.877 166.096,55.454 167.387,55.04 167.975,54.371 169.287,54.079 171.205,50.639 
		167.309,49.238 162.688,49.083 159.67,47.926 159.18,47.333 154.285,45.814 153.639,46.295 145.998,44.472 146.195,43.966 
		145.49,43.546 136.617,43.363 135.07,41.475 134.758,42.619 122.32,43.08 120.869,43.912 118.578,43.887 116.699,43.208 
		115.602,43.261 113.605,42.191 106.182,43.572 102.832,41.793 99.719,43.992 88.828,43.598 87.986,42.619 86.752,43.86 
		82.775,43.939 77.645,47.13 73.865,47.747 71.025,51.298 69.869,51.599 68.715,51.433 67.947,50.902 69.066,48.989 67.947,49.021 
		67.812,48.408 69.557,47.451 68.891,44.932 64.053,44.204 62.389,45.041 57.256,43.234 57.158,42.67 53.613,42.217 50.949,43.028 
		50.754,43.493 49.93,43.808 48.99,43.781 47.443,44.633 46.504,44.472 40.021,46.608 39.668,47.246 38.648,47.599 37.199,46.694 
		36.16,46.81 35.301,46.465 34.908,45.955 33.871,45.731 31.99,47.422 22.57,49.021 21.453,48.046 15.947,47.986 15.127,48.561 
		14.736,47.986 13.424,47.896 12.404,48.317 11.953,48.928 10.818,49.238 9.525,47.956 8.486,48.165 7.742,47.776 -0.229,50.542 
		-0.658,49.867 -5.535,50.154 -5.789,49.551 -6.867,49.394 -7.418,50.639 -8.611,50.574 -9.102,50.026 -10.295,49.932 
		-16.465,54.482 -15.406,54.927 -35.777,64.279 -35.641,67.31 -29.686,66.755 -28.551,69.935 -40.771,73.284 -42.809,75.913 
		-47.273,74.534 -49.762,74.604 -58.223,80.56 -77.926,64.38 -76.496,63.729 -74.771,63.976 -73.656,63.186 -75.398,61.659 
		-76.926,61.245 -77.24,60.342 -70.602,60.164 -61.963,55.569 -65.664,44.959 -63.744,43.002 -62.119,42.594 -62.648,41.694 
		-62.021,40.843 -59.789,40.13 -59.045,40.319 -57.223,39.316 -57.811,39.02 -67.74,44.099 -67.955,52.52 -76.221,54.666 
		-77.926,53.646 -79.297,53.826 -80.297,53.113 -81.471,54.445 -85.191,53.753 -86.014,53.043 -87.268,53.219 -88.424,52.901 
		-89.227,52.106 -90.09,53.468 -91.42,53.61 -92.439,53.184 -97.688,53.898 -99.137,52.729 -103.68,52.21 -102.545,54.927 
		-101.252,55.077 -100.115,56.419 -100.645,57.293 -104.877,56.575 -107.559,57.053 -111.26,55.53 -112.299,56.107 -113.943,54.188 
		-116.217,55.188 -117.469,54.778 -144.322,57.781 -144.908,57.093 -146.201,57.455 -146.104,59.812 -152.92,62.177 
		-153.742,61.153 -156.973,61.706 -158.365,60.745 -155.328,66.211 -149.531,67.031 -146.77,68.681 -146.418,69.935 
		-150.648,73.216 -152.098,72.081 -154.408,72.609 -156.838,72.41 -152.861,75.765 -153.586,82.715 -150.902,83.756 
		-150.061,85.747 -146.828,87.008 -142.891,87.224 -143.107,89.938 -143.209,90 180,90 180,88.023 	"/>
	<polygon fill="#D1D1D1" points="-126.559,53.328 -127.283,53.721 -124.031,54.484 	"/>
	<polygon fill="#D1D1D1" points="-64.488,71.808 -62.256,71.615 -60.16,72.068 -60.609,67.806 -61.883,70.106 -66.289,69.681 	"/>
	<polygon fill="#D1D1D1" points="70.559,25.66 70.523,25.508 68.936,25.159 68.744,26.078 70.279,26.025 	"/>
	<polygon fill="#D1D1D1" points="147.688,19.403 146.365,19.631 144.742,19.332 146.047,21.336 146.871,21.396 147.564,20.896 
		147.914,21.092 148.018,20.52 148.361,20.276 148.289,19.449 	"/>
	<polygon fill="#D1D1D1" points="126.582,3.386 126.143,3.463 126.125,3.598 125.686,3.535 125.672,3.688 125.166,3.777 
		124.381,4.257 124.26,4.67 123.816,4.553 123.504,4.816 123.859,5.074 123.434,5.184 123.012,4.713 122.312,5.176 122.242,5.694 
		119.805,6.677 118.986,6.714 118.836,6.837 117.441,7.104 117.166,7.036 114.646,7.712 114.225,8.1 114.15,7.671 113.393,9.162 
		114.232,10.268 113.439,9.874 113.777,10.413 113.34,10.161 115.547,14.601 115.049,14.688 115.027,15.047 116.625,15.572 
		118.023,15.598 119.008,15.216 119.299,15.244 119.893,14.907 123.658,14.854 124.221,14.271 132.99,13.685 134.275,14.06 
		134.086,14.202 135.24,14.89 135.209,15.226 135.988,15.485 137.811,14.234 136.828,15.722 137.719,15.604 138.207,15.165 
		138.449,15.638 138.119,15.948 139.082,16.025 140.639,17.519 143.609,18.045 145.031,17.438 144.877,17.783 146.318,18.196 
		149.996,17.127 153.135,10.136 150.727,8.034 150.482,8.122 150.076,7.877 149.678,8.001 148.719,7.042 148.848,6.907 
		146.387,6.112 145.889,4.986 145.637,4.92 145.375,3.942 144.564,3.504 143.922,3.707 143.115,2.289 142.867,2.225 142.516,1.631 
		141.688,2.557 141.842,2.736 141.65,2.845 140.875,5.238 140.217,5.426 139.26,5.239 139.109,5.07 135.498,3.949 135.428,3.797 
		136.078,3.263 135.961,3.049 136.305,3.031 136.951,2.527 136.492,2.264 136.258,2.366 135.883,2.32 135.297,2.473 134.68,2.309 
		134.393,2.362 132.357,1.875 131.826,1.953 132.557,2.128 132.574,2.4 131.225,2.438 130.184,2.932 130.34,3.066 129.408,3.638 
		129.623,3.934 128.359,3.881 127.066,3.314 	"/>
	<polygon fill="#D1D1D1" points="110.57,-14.218 111.01,-14.462 110.787,-14.673 109.117,-14.531 108.625,-14.28 108.654,-13.806 
		109.475,-13.636 110.34,-13.899 	"/>
	<polygon fill="#D1D1D1" points="33.666,-23.737 32.947,-23.746 32.803,-23.592 32.258,-23.564 32.49,-23.309 32.98,-23.227 
		34.006,-23.484 33.9,-23.656 34.576,-23.928 	"/>
	<polygon fill="#D1D1D1" points="12.09,-38.314 12.689,-39.056 12.371,-39.523 10.904,-39.213 11.045,-38.829 	"/>
	<polygon fill="#D1D1D1" points="178.553,5.667 178.719,5.38 178.373,5.223 178.125,5.312 177.672,5.245 177.285,5.433 
		177.383,5.675 	"/>
	<polygon fill="#D1D1D1" points="179.098,4.729 178.596,4.84 178.725,5.043 180,4.794 180,4.529 	"/>
	<polygon fill="#D1D1D1" points="-179.793,4.504 -180,4.529 -180,4.794 -179.916,4.766 	"/>
	<polygon fill="#D1D1D1" points="-60,27.289 -61.199,27.793 -60.699,28.175 -59.85,27.793 -59.4,28.09 -58.051,27.835 
		-57.75,27.539 -58.551,27.164 -59.15,27.498 	"/>
	<polygon fill="#D1D1D1" points="-5.588,-38.78 -5.049,-39.217 -4.719,-38.962 -5.084,-38.552 -4.846,-38.306 -3.631,-38.146 
		-2.945,-37.583 -3.092,-37.071 -4.58,-37.151 -4.77,-36.581 -4.223,-36.118 -5.268,-35.854 -4.984,-35.519 -3.414,-35.378 
		-5.777,-34.333 -5.244,-34.171 -4.543,-34.481 -3.617,-34.389 -2.955,-34.771 -2.49,-34.61 0.551,-34.829 1.449,-35.265 
		1.051,-35.698 1.561,-35.947 1.682,-36.494 0.469,-36.659 -0.432,-38.012 -1.115,-38.156 -2.086,-39.334 -3.119,-39.395 
		-1.961,-41.027 -4.072,-40.898 -3.006,-41.967 -5.01,-41.962 -6.15,-40.159 	"/>
	<polygon fill="#D1D1D1" points="25.025,-23.77 24.246,-23.734 23.699,-23.949 23.516,-23.678 24.734,-23.553 24.725,-23.448 
		26.164,-23.502 26.289,-23.689 25.744,-23.613 25.77,-23.725 	"/>
	<polygon fill="#D1D1D1" points="125.988,-2.311 126.184,-2.087 126.873,-1.99 127.25,-2.164 127,-2.337 	"/>
	<polygon fill="#D1D1D1" points="118.26,0.41 117.9,0.27 117.633,0.455 117.084,0.46 116.74,0.764 119.127,0.592 118.879,0.367 	"/>
	<polygon fill="#D1D1D1" points="118.969,1.042 120.295,1.413 120.715,1.403 120.775,1.26 119.9,0.938 	"/>
	<polygon fill="#D1D1D1" points="128.137,-2.486 127.898,-2.199 130.834,-1.955 130.471,-2.355 	"/>
	<polygon fill="#D1D1D1" points="128.004,-4.82 127.934,-5.105 127.398,-4.499 128.1,-3.501 128.379,-3.562 127.969,-3.839 
		128.119,-4.157 128.635,-4.105 128.596,-4.775 	"/>
	<polygon fill="#D1D1D1" points="122.756,0.562 122.902,0.269 121.342,0.502 120.715,0.344 119.922,0.453 119.924,0.646 	"/>
	<polygon fill="#D1D1D1" points="119.324,-3.264 118.77,-2.508 119.078,-2.148 119.498,-2.145 119.367,-1.158 119.797,-1.004 
		120.43,-1.081 120.305,-2.439 120.973,-2.599 120.898,-2.09 121.619,-1.783 121.488,-1.58 121.738,-1.436 122.721,-1.639 
		122.236,-1.209 122.627,-1.024 123.162,-1.179 123.172,-1.523 122.271,-2.127 122.453,-2.307 121.51,-2.977 122.822,-3.485 
		123.26,-3.408 123.342,-3.649 120.936,-3.235 120.041,-3.699 120.182,-4.095 124.438,-4.194 125.24,-4.713 125.066,-4.828 
		124.074,-4.45 120.887,-4.654 	"/>
	<polygon fill="#D1D1D1" points="108.486,-0.611 106.051,-0.888 105.365,-0.386 106.279,-0.348 106.455,-0.121 115.705,0.414 
		112.979,0.006 112.615,-0.336 110.76,-0.588 110.539,-0.372 108.623,-0.424 	"/>
	<polygon fill="#D1D1D1" points="103.076,-4.264 101.656,-5.059 100.641,-5.066 97.486,-6.714 95.293,-6.837 104.711,-0.899 
		105.818,-0.91 106.109,-2.371 105.621,-2.703 104.889,-2.749 104.369,-3.404 103.438,-3.6 103.838,-4.025 	"/>
	<polygon fill="#D1D1D1" points="134.111,-0.758 134.211,-0.363 134.725,-0.721 134.727,-0.971 134.498,-1.124 	"/>
	<polygon fill="#D1D1D1" points="108.951,-4.188 109.572,-3.284 110.07,-3.139 110.225,-2.438 111.703,-2.406 112.068,-2.154 
		113.256,-2.342 114.469,-2.145 114.865,-1.824 116,-2.061 116.148,-1.874 116.561,-3.194 117.521,-3.551 117.812,-4.381 
		118.996,-4.442 117.875,-4.926 118.049,-5.166 117.314,-5.661 117.883,-6.134 118.617,-6.312 118.439,-6.567 119.111,-6.593 
		119.182,-6.799 117.689,-7.104 117.645,-7.331 117.129,-7.597 116.725,-7.595 112.996,-5.592 111.369,-5.379 111.168,-4.938 
		110.396,-4.839 109.662,-5.019 109.068,-4.672 	"/>
	<polygon fill="#D1D1D1" points="-8.562,-35.583 -6.789,-36.083 -6.031,-36.854 -6.197,-37.479 -5.662,-38.093 -6.734,-38.653 
		-7.572,-38.616 -9.688,-37.492 -9.164,-36.604 -9.977,-35.71 	"/>
	<polygon fill="#D1D1D1" points="-19.973,-47.396 -18.656,-47.225 -13.609,-49.189 -14.74,-50.046 -14.51,-50.882 -16.168,-50.976 
		-17.799,-50.283 -19.057,-50.648 -20.576,-49.948 -22.135,-50.823 -23.65,-50.629 -24.326,-49.795 -22.227,-49.502 
		-22.184,-49.137 -23.955,-48.896 -21.779,-48.301 -22.762,-47.771 	"/>
	<polygon fill="#D1D1D1" points="8.389,-27.049 8.43,-26.23 8.807,-26.052 9.215,-26.276 9.67,-26.234 9.811,-27.133 9.211,-27.623 
		8.711,-27.408 8.16,-27.443 	"/>
	<polygon fill="#D1D1D1" points="14.762,-25.543 12.57,-25.531 12.43,-25.191 15.1,-24.541 15.311,-24.877 15.16,-25.08 
		15.52,-25.601 	"/>
	<polygon fill="#D1D1D1" points="138.857,-25.333 137.393,-24.677 136.723,-24.988 135.678,-23.836 132.617,-23.775 
		129.406,-22.424 129.814,-21.997 130.447,-21.816 130.201,-21.264 130.686,-21.025 131.332,-21.283 131.998,-22.333 
		130.986,-22.793 135.078,-23.242 135.121,-22.771 135.793,-22.529 137.217,-23.248 140.254,-23.587 141.369,-27.74 
		140.307,-27.612 139.428,-25.59 	"/>
	<polygon fill="#D1D1D1" points="140.312,-29.122 139.818,-28.573 139.953,-27.873 141.066,-27.883 141.611,-28.655 
		143.184,-28.172 144.061,-28.875 145.545,-29.071 145.32,-29.883 144.613,-29.575 141.969,-30.744 141.381,-29.161 	"/>
	<polygon fill="#D1D1D1" points="133.281,-22.42 133.795,-22.564 134.203,-22.364 134.768,-22.744 134.639,-22.959 133.902,-23.096 
		133.492,-22.83 132.926,-22.903 132.371,-22.529 132.365,-22.232 133.016,-22.056 	"/>
	<polygon fill="#D1D1D1" points="81.219,-7.213 81.637,-7.362 81.787,-7.91 80.146,-9.126 79.871,-7.511 80.348,-7.093 	"/>
	<polygon fill="#D1D1D1" points="43.896,7.151 43.895,7.338 43.434,7.435 44.039,9.509 45.41,9.862 47.096,9.481 49.498,5.095 
		49.775,4.969 49.672,4.335 49.861,4.175 50.201,4.492 50.477,4.073 49.193,2.361 48.863,2.601 48.846,2.923 48.295,3.295 
		47.867,3.23 48.006,3.461 46.312,4.373 44.447,4.609 43.965,5.261 44.465,6.376 	"/>
	<polygon fill="#D1D1D1" points="165.779,7.292 164.461,6.756 164.029,6.748 166.74,8.034 167.119,7.896 	"/>
	<polygon fill="#D1D1D1" points="171.947,19.893 166.51,23.027 166.678,23.303 167.764,23.355 168.41,23.605 169.332,23.622 
		170.617,23.069 171.451,21.836 172.307,21.562 173.08,21.555 172.711,21.207 174.248,20.071 173.961,19.485 173.246,19.766 
		172.797,19.188 172.098,19.506 	"/>
	<polygon fill="#D1D1D1" points="175.957,17.212 175.809,16.716 175.357,16.538 175.338,16.984 174.328,15.726 173.006,15.208 
		172.637,15.257 174.742,17.524 174.574,18.037 173.852,18.271 173.824,18.516 174.9,18.787 175.227,19.164 174.65,19.73 
		175.068,19.832 175.238,20.014 177.031,18.768 176.939,18.475 177.205,18.271 177.971,18.285 178.518,17.305 178.01,17.229 
		177.439,17.479 	"/>
	<polygon fill="#D1D1D1" points="121.883,-10.225 122.002,-9.452 123.1,-9.838 123.119,-10.061 	"/>
	<polygon fill="#D1D1D1" points="118.986,-9.419 117.174,-8.354 119.691,-9.513 119.512,-9.946 	"/>
	<polygon fill="#D1D1D1" points="120.834,-10.659 121.262,-10.392 121.527,-10.854 121.18,-11.048 120.322,-11.067 	"/>
	<polygon fill="#D1D1D1" points="119.922,-12.112 120.564,-11.567 120.693,-11.762 120.99,-11.638 120.68,-11.499 120.629,-11.277 
		121.129,-11.158 122.035,-11.238 122.672,-10.917 122.928,-11.113 124.074,-10.569 124.182,-10.815 123.855,-10.944 
		123.949,-11.237 121.729,-11.53 121.662,-12.396 122.254,-12.577 122.516,-13.03 122.176,-13.423 122.338,-13.649 122.246,-13.79 
		121.938,-13.646 120.715,-13.804 120.285,-12.454 119.883,-12.632 	"/>
	<polygon fill="#D1D1D1" points="123.488,-8.527 122.312,-8.18 121.92,-7.735 122.086,-7.581 122.824,-7.876 123.297,-7.855 
		123.609,-8.073 124.242,-7.825 123.939,-7.575 124.219,-7.194 125.396,-6.89 125.684,-7.136 125.363,-7.521 125.83,-7.789 
		126.197,-7.254 126.223,-8.841 125.412,-9.092 125.471,-8.683 124.766,-8.669 124.6,-8.433 123.842,-8.288 	"/>
	<polygon fill="#D1D1D1" points="122.947,-9.688 122.381,-9.067 122.994,-8.701 123.982,-9.366 124.076,-9.873 123.34,-9.36 
		123.498,-9.718 	"/>
	<polygon fill="#D1D1D1" points="125.502,-10.369 125.227,-10.568 124.268,-10.58 124.879,-10.173 124.893,-9.971 124.303,-10.013 
		124.461,-9.69 124.76,-9.663 124.803,-9.29 125.277,-9.409 125.012,-9.915 125.783,-9.773 	"/>
	<polygon fill="#D1D1D1" points="150.141,-1.357 149.994,-1.344 149.846,-1.093 148.402,-1.129 148.318,-0.966 149.711,-0.666 
		151.301,-0.916 151.459,-1.064 151.982,-1.107 152.338,-1.717 152.137,-1.803 151.537,-1.793 151.648,-1.484 150.807,-1.119 
		150.236,-1.078 	"/>
	<polygon fill="#D1D1D1" points="151.953,-2.162 152.826,-1.479 153.141,-1.619 153.02,-1.892 150.939,-2.665 150.662,-2.539 	"/>
	<polygon fill="#D1D1D1" points="147.648,-0.789 145.982,-1.113 145.83,-1.422 137.441,-3.082 135.457,-2.212 134.422,-2.525 
		133.984,-3.562 132.381,-3.777 130.52,-3.481 130.941,-3.223 131.838,-3.127 132.232,-2.815 133.697,-2.814 133.781,-2.676 
		131.988,-2.498 132.754,-2.24 132.758,-2.014 132.982,-1.822 133.367,-1.867 133.662,-2.123 137.928,-1.15 138.666,-0.139 
		138.039,0.007 137.613,0.436 138.883,0.42 139.129,0.27 140.145,0.376 141.031,0.809 142.629,0.92 143.412,0.738 143.287,0.348 
		144.744,0.023 147.912,1.346 149.781,1.485 150.027,1.623 150.691,1.586 150.803,1.432 149.738,1.209 150.039,1.109 149.268,1.019 
		149.307,0.785 148.734,0.803 146.973,-0.453 147.891,-0.511 	"/>
	<polygon fill="#D1D1D1" points="155.6,-0.35 155.881,-0.402 156.02,-0.549 154.652,-1.335 154.514,-1.284 	"/>
	<polygon fill="#D1D1D1" points="-177.662,-57.658 -177.576,-57.88 -179.023,-58.349 -179.871,-58.354 -180,-58.283 -180,-57.177 	
		"/>
	<polygon fill="#D1D1D1" points="-179.883,-50.13 -178.686,-50.436 -178.902,-49.959 -178.359,-49.518 -177.221,-49.68 
		-176.205,-49.475 -175.982,-48.938 -173.891,-48.157 -172.953,-48.121 -172.555,-48.373 -172.529,-49.577 -170.891,-49.707 
		-169.898,-50.262 -171.857,-51.485 -174.57,-51.685 -174.34,-50.726 -175.014,-51.05 -174.928,-51.878 -180,-54.337 -180,-49.006 
		-179.432,-49.535 	"/>
	<polygon fill="#D1D1D1" points="140.812,-62.225 139.863,-61.494 140.035,-61.396 143.604,-61.208 143.482,-61.688 
		142.061,-62.398 	"/>
	<polygon fill="#D1D1D1" points="149.576,-64 150.73,-64.791 146.359,-65.639 146.119,-64.972 	"/>
	<polygon fill="#D1D1D1" points="178.725,-57.604 178.904,-57.097 180,-57.177 180,-58.283 	"/>
	<polygon fill="#D1D1D1" points="140.613,-64.314 144.301,-64.26 145.086,-65.777 138.83,-67.003 137.512,-66.598 136.973,-65.152 
		138.955,-63.847 	"/>
	<path fill="#D1D1D1" d="M175.725-55.694l-5.271-0.334l-0.445,0.673l0.809,0.946l-1.24,0.462l-1.742-1.303l-6.895,0.217l-1.23-0.426
		l0.121-1.121l-0.834-0.651l-6.027,0.039L149.5-59.43l-9.033-1.129l-1.318,0.758l0.721,1.563l-1.635-0.23l-0.736,0.462l-1.938-0.507
		l-1.703,0.441l-1.605-0.744l-0.965,1.71l-2.83-1.951l0.594-0.715l-2.076-2.082l-3.719-0.313l-0.057,1.393l-4.182-0.267
		l-0.244-0.854l-4.807-0.014l-0.439,0.479l-0.51-1.192l-0.9,0.354l-2.719-0.741l4.484-2.279l0.25-1.09l-3.059-1.898l-2.924-0.03
		l-0.914,0.549l-0.268-1.124l-2.268-0.356l1.361-0.583l-1.715-0.784l-3.316,1.982l-0.275,0.977l-1.836-0.037l-2.244,1.161
		l-0.816-0.484l-2.627,0.2l-0.334,0.589l-2.639,0.28l-1.945,1.027l-1.15,0.056l-1.156,1.309l0.812,1.002l-6.311,0.54l0.988,3.336
		l-1.85-0.965l-2.074,0.091L75.9-58.876l0.455,1.188l-1.07-0.297l-0.131-2.582l-0.498,0.041l0.23,1.232l-1.789,1.125l1.297,1.312
		l-0.557,2.365l1.094,0.12l-0.467,0.947l0.584,0.793l-1.133,1.312l-1.1,0.338l-0.398,0.472l-1.143-0.192l2.387-2.834l-1.102-0.882
		l-0.096-3.169l-0.621-0.519l0.738-2.322l-2.648-0.469l-3.01,5.839l1.207,0.146l0.027,0.312l1.018,0.766l-0.67,0.74l-7.961-2.56
		l-0.52,0.497l1.047,0.854l-1.137,0.947l-1.139-0.859l-1.486,0.594l-1.873,0.039L54.721-53.1l-1.24-0.146l0.984-0.865l-0.756-0.069
		l-5.576,1.876l-0.246,0.858l-1.545,0.287l-0.787-0.454l-0.006-0.752l1.266-0.17l-0.57-0.779l-2.799-0.455l0.736,0.874l-0.488,0.821
		l0.832,0.798l-0.582,0.898l-0.934-0.454l-0.924-0.076l-2.33,1.258l0.672,0.909l-0.842,0.297l-2.416-0.764l-0.637,0.467l0.602,0.521
		l-0.129,0.58l-2.068-0.677l-0.129-1.847l-1.629-0.951l0.732-0.168l4.465,0.992l2.742-1.034l-0.834-1.547l-8.158-2.866l-1.031,0.523
		l-1.098-0.952l1.289-0.415l-3.129-1.163l-3.619,0.25l-1.523,1.304l-1.645-0.082L4.984-45.486l0.674,3.566l1.385,0.506l1.332-0.232
		l1.975-1.168l2.586,3.987l1.158-0.042l0.566-0.738l1.215,0.092l0.947-2.536l1.039-0.236l0.92-1.161l-1.668-1.344l4.25-3.521
		l-0.156-0.749l0.971-0.873l1.719-0.361l1.391,0.602l0.105,0.528l-4.34,2.969l0.262,2.076l1.549,0.922l5.199-0.69l1.047,0.5
		l-1.135,0.572l-4.643,0.296l0.086,0.58l0.637,0.354l0.367-0.126l-0.309,1.328l-0.803,0.018l-0.793-0.723l-0.943,0.332l-0.312,2.092
		l-1.379,0.296l-0.229,0.396l-0.965-0.012l-0.076-0.219l-0.998-0.153l-3.502,0.979l-1.602-0.636l-1.58,0.412l0.012-0.316
		l-1.01-0.209l-0.291-0.796l0.721-0.67l0.297,0.102l0.244-0.354l-0.541-0.143l0.209-1.079l-1.156,0.542l-0.879,0.06l-0.455,0.544
		l0.711,2.311l-0.68,0.437L7.93-37.371l-0.838,0.048l-0.195,0.187l-0.83-0.024l-1.369,0.365l-1.391,1.487l-1.676,0.332l-0.299,0.674
		l-2.33,0.63l-0.943-0.346l0.316,0.904l-2.977-0.031l0.102,0.572l3.299,1.485l-0.707,1.903l-6.078-0.233L-9.4-28.9l0.104,3.218
		l0.447,0.062l-0.059,0.921l0.516-0.072l0.527,0.092l0.402-0.17l0.934,0.103l0.654,0.593l0.488,0.054l1.01-0.474l2.225,0.003
		l0.707-0.504l0.754-0.131l0.217-0.431l0.58-0.299l-0.391-0.383l1.09-1.165l1.279-0.146l0.947-0.464l0.061-0.839l3.432-0.038
		l2.359-0.896l3.998,2.217l0.74,0.046l0.434,0.277l0.643,0.125l0.295,0.297l0.416,0.084l0.697,0.733l-0.428,0.704l0.418-0.052
		l0.533-0.571l0.418-0.039l0.119-0.353l-0.723-0.251l0.42-0.441l0.869,0.112l0.555,0.318l0.188-0.244l-2.59-0.947l0.279-0.139
		l-0.244-0.155l-0.783,0.005l-2.881-1.898l0.066-0.576l0.812-0.264l0.795,0.106l-0.258,0.08l-0.021,0.258l0.295,0.247l0.307-0.317
		l0.643,0.115l0.02,0.25l0.455,0.308l-0.199,0.055l4.363,1.802L19.4-26.957l0.553,0.229l0.021,0.149l0.17,0.047l1.52,1.848
		l0.82,0.283l0.664-0.008l-0.379-0.575l0.635-0.07l-0.295-0.336l0.924,0.177l-0.016-0.375l-1.053-0.502l0.377-0.146l-0.723-0.724
		l0.188-0.15l0.529,0.354L24.4-26.87l-0.693-0.386l2.342-0.095l-0.014,0.142l0.316,0.319l1.262-0.581l1.188-0.039l0.182-0.17
		l-0.873-0.226l-0.441-0.673l1.162-1.688l0.305,0.068l0.486-0.159l-0.023-0.189l1.145-0.97l0.928-0.094l0.068,0.283l1.555,0.191
		l0.289,0.171l-0.957,0.249l-0.176,0.143l1.092,0.217l-0.221,0.347l0.557,0.147l2.451-0.553l0.195-0.264l-1.02,0.044l-0.492-0.181
		l-0.057-0.468l4.158-0.754l0.027,0.168l-1.475,0.312l0.559,0.301l-0.828,0.626l-0.73,0.118l4.779,1.885l0.1,0.782l-3.205,0.407
		L35.158-28.2l-5.926,0.573l-0.42,0.525l-1.539,0.026l-1.111,0.65l0.635,0.321l-0.486,0.521l1.322,1.021l1.092-0.013l0.969,0.345
		l0.689-0.076l0.232-0.27l1.076,0.021l0.809,0.349l1.52-0.073l0.688-0.374l1.445,0.095l-0.377,0.243l0.367,0.293l-1.023,1.729
		l-0.029,0.008l-0.609,0.911l0.068,0.034l-0.783,0.354l-1.582-0.179l-0.232,0.199l-0.271-0.304l-1.592-0.025l-1.182,0.367
		l-3.75-0.427l-0.244-0.203l-1.684-0.18l-0.342-0.275l-2.041-0.043l-1.033,0.589l0.232,0.47l-0.967,0.437l-3.373-0.676l-0.467-0.545
		l-2.162-0.381l-0.42,0.054l-1.555-0.312l-0.252-0.299l-0.518-0.011l-0.189-0.344l0.658-0.318l0.133-0.553l-0.348-0.16l0.006-0.3
		l0.5-0.318l-0.07-0.125l-0.848,0.239l0.029-0.33l-0.701-0.078l-1.773,0.304l-0.406-0.152L-4.6-23.707l-0.604-0.272l-0.734-0.003
		l-0.982,1.052l-1.746,0.546l-1.158,1.271l0.25,0.755l-2.123,1.065l-0.93,0.065l-3.709,2.905l0.064,0.192l-0.711,0.448l-0.09,0.495
		l0.785,0.507l-0.906,2.834l-0.439,0.102l0.91,0.611l0.1,0.762l0.307,0.113l-0.006,0.082l1.621,0.611l0.113,0.234l1.332,0.694
		l0.297,0.582l5.238,1.804l12.037-1l1.574,1.054l2.602-0.268L8.48-6.32l0.256,0.076L8.939-6.01l0.457,0.088l0.391,0.347l-0.49,0.999
		l0.188,0.079L8.789-3.39l3.523,2.608l-0.094,0.104l1.01,1.192l-0.363,0.319l0.76,1.525l-1.9,2.841l6.516,8.741l-0.324,0.112
		l0.453,0.953l0.049-0.088l0.43,0.282l0.338,0.012l0.424,0.226l6.162-0.553l6.424-3.176l0.713-1.492l-0.256-0.04l-0.086-0.244
		l2.883-0.923l0.148-0.237l-0.234-0.099l0.191-0.817l-0.18,0.027l-0.598-1.316l5.689-2.399l-0.16-2.726l-0.367-0.116l-0.754-1.267
		l0.275-0.316L39.43-0.393l-0.641-0.19l12.312-9.713l-6.992,0.841l-1.402-0.688l0.57-0.127l0.031-0.223l-6.348-4.604l0.219-0.103
		l-1.662-1.174l-0.033-0.37l0.199-0.1l-3.373-3.416l0.104-0.056l1.498,1.312l1.002-1.103l-0.291,0.86l0.498-0.004l2.08,1.739
		l-0.055,0.13l5.668,4.99l-0.121,0.104l0.104,0.247l-0.201,0.026l0.879,1.386l1.506-0.033l0.154-0.136l0.262-0.039l0.219-0.143
		l6.543-1.243l0.217-0.427l1.854-0.359l0.553,0.051l0.484-0.151l-0.006-0.222l0.393-0.138l0.621,0.005l0.23-0.116l0.096-0.269
		l0.625-0.205l0.459,0.002l0.096-0.068l0.037-0.652l0.207-0.132l0.453,0.028l1.318-1.054l0.004-0.126l-0.359-0.072l-0.721-0.514
		l-1.326-0.179l-1.006-0.602l0.088-0.802l-0.123-0.051l-2.355,1.312L51.783-16.9l-0.037-0.156l-0.178,0.026l-0.189-0.219
		l0.199-0.678l-0.303-0.183l-0.273,0.062l-0.203,0.725l-0.695-0.688l0.037-0.435l-0.682-0.247l-0.172-0.206l-0.492-0.135
		l-0.713-0.96l0.09-0.137l-0.209-0.266l0.594,0.029l0.373-0.236l0.637,0.2l0.539-0.099l1.404,1.363l3.193,0.812l1.777-0.388
		l0.479,0.104l0.426,0.715l8.977,0.183l3.271,1.7l-0.48,0.203l1.307,0.68l0.705,0.066l1.455-0.335l4.91,7.244l0.738-0.511
		l0.912-0.149l-0.305-0.174l0.455-0.403l0.518-0.026l0.467-2.972l1.867-0.357l0.002-0.251l4.838-2.056l-0.057-0.422l1.912-0.109
		l0.145-0.205l0.67,0.111l0.145-0.103l0.426,0.113l0.312-0.313l-0.09-0.231l0.92,0.021l1.664,1.632l0.582,0.069l-0.121,0.2
		l0.992,1.149l-0.344,0.674l1.18,0.177l1.797-0.661l1.174,4.887l0.164-0.309l5.018,3.751l0.709-0.034l-0.375-0.64l-0.354-0.144
		l-0.123-1.081l-1.756-0.989l-0.605-0.062l-1.146-1.24l-0.648-0.017l0.875-2.218l0.881-0.004l-0.148,0.42l1.754,0.235l0.912,0.828
		l1.58,0.379l-0.281,0.357l0.363,0.34l4.043-1.627l-0.324-1.938l-3.215-2.065l2.861-1.479l1.342,0.18l-0.238,0.217l0.264,0.404
		l0.553-0.032l0.342-0.591l3.021-0.647l0.348,0.185l6.971-3.414l0.561-0.053l0.406-0.959l-0.588-0.188l-0.24-0.322l0.629-0.166
		l-1.666-2.115l-1.076-0.35l1.955-1.121l1.414-0.182l-0.162-0.343l-1.535-0.274l-1.121,0.47l-0.791-0.19l-0.033-0.296l-0.818-0.109
		l-0.527-0.449l0.51-0.313l0.98-0.032l2.617-1.156l0.529,0.36l-0.793,0.459l0.209,0.264l-0.531,0.312l3.211-0.697l1.057,0.256
		l0.064,0.111l-0.254,0.361l0.09,0.122l-0.236,0.078l-0.273,0.293l0.527,0.167l0.037,0.124l0.291-0.055l0.121-0.125l0.486,0.127
		l0.686,0.561l-0.742,0.111l0.367,1.498l2.605-0.438l0.371-1.099l-2.076-1.608l0.117-0.074l0.031-0.293l2.172-0.771l-0.039-0.498
		l0.734-0.478l0.379,0.043l0.156-0.236l1.342-0.521l0.629,0.348l8.438-8.059l-1.443-0.97l-1.098-0.057l-0.641,0.443l-0.971-0.197
		l-0.494-0.562l-1.574-0.112l7.07-4.125l6.348-0.126l1.238-0.504l1.555,0.155l-0.07,0.735l3.777-0.368l-0.826-0.631l2.502-1.781
		l2.582-0.373l0.818,1.331l3.139-2.104l1.215-0.097l-6.109,4.746l-1.553,0.22l-0.021,6.14l1.441-0.781l0.301-0.87l1.49-0.212
		l0.35-1.01l1.746-0.459l-0.416-0.393l0.428-0.776l0.93-0.034l0.135-1.392l-1.141-0.22l1.486-2.049l1.336,0.143l0.965-0.446
		l0.455,0.387l2.607-0.823l1.428,0.728l7.035-2.862l1.863,0.245l0.258-0.298l-2.074-2.396l1.295,0.089l1.293-0.543v-5.331
		L175.725-55.694L175.725-55.694z M53.826-24.767l-2.984,0.06l-1.643-0.465l-0.344-0.818l0.715-0.92l0.822-0.056l-0.307-0.186
		l-0.467-0.031l-2.127-1.691l0.1-0.482l-0.908-0.69l0.992-0.764l0.971-0.123l0.457-0.447l2.09-0.494l1.85,0.15l-0.002,1.198
		l-1.723,0.011l-0.037,0.538l-0.975-0.069l0.033,0.238l0.553,0.184l0.451,0.647l1.158,0.242l0.191,0.247l-0.246,0.294l0.369,0.624
		l0.102-0.512l0.805-0.181l1.016,0.818l-0.879,0.222l-0.941-0.169l-0.221,0.576l0.664,0.041l-0.258,0.465l0.779,0.228L53.826-24.767
		L53.826-24.767z"/>
	<polygon fill="#D1D1D1" points="141.594,-35.808 142.092,-31.055 142.746,-31.64 143.506,-31.185 143.531,-31.714 142.559,-32.503 
		143.174,-33.644 144.652,-33.38 142.654,-37.924 142.211,-37.798 142.605,-37.387 141.684,-36.982 	"/>
	<polygon fill="#D1D1D1" points="52.479,-59.48 51.455,-59.116 51.602,-58.216 53.412,-57.778 53.678,-57.066 56.945,-56.861 
		57.535,-56.999 55.623,-58.324 61.582,-65.15 68.18,-67.215 68.854,-67.904 68.158,-68.804 55.633,-64.785 55.902,-63.878 
		53.51,-62.196 54.428,-61.969 52.443,-60.428 	"/>
	<polygon fill="#D1D1D1" points="93.312,-75.167 97.76,-73.317 99.939,-73.653 95.939,-80.857 91.182,-77.889 92.545,-77.279 	"/>
	<polygon fill="#D1D1D1" points="105.074,-72.137 105.371,-73.204 102.088,-74.94 101.264,-74.624 99.439,-71.158 	"/>
	<polygon fill="#D1D1D1" points="46.504,-77.597 47.586,-76.875 48.756,-77.376 48.895,-77.883 51.137,-78.535 51.523,-79.024 
		50.039,-79.74 48.523,-78.432 48.318,-79.298 44.846,-78.671 47.072,-78.574 	"/>
	<polygon fill="#D1D1D1" points="161.699,1.711 162.398,1.715 162.119,1.532 161.318,1.385 	"/>
	<polygon fill="#D1D1D1" points="160.922,0.389 160.578,0.389 161.527,1.162 161.68,1.064 	"/>
	<polygon fill="#D1D1D1" points="159.641,0.229 158.357,-0.14 158.211,-0.086 159.918,0.503 	"/>
	<polygon fill="#D1D1D1" points="157.34,-0.095 157.537,-0.125 156.541,-0.519 156.492,-0.431 	"/>
	<polygon fill="#D1D1D1" points="159.703,0.875 159.641,1.085 160.852,1.209 160.363,0.959 	"/>
	<polygon fill="#D1D1D1" points="126.645,0.43 125.086,0.566 124.969,0.689 123.98,0.9 123.461,1.403 123.58,1.467 127.338,0.429 
		126.955,0.363 	"/>
	<polygon fill="#D1D1D1" points="121.178,-16.196 121.949,-17.457 121.494,-17.628 120.105,-16.63 120.744,-15.733 	"/>
	<polygon fill="#D1D1D1" points="-78.191,-17.58 -78.408,-17.214 -77.779,-16.718 -77.533,-16.747 -77.891,-17.557 	"/>
	<polygon fill="#D1D1D1" points="-77.174,-17.967 -77,-18.381 -77.789,-18.644 -77.787,-18.576 -77.34,-18.345 -77.355,-18.041 	"/>
	<polygon fill="#D1D1D1" points="-78.51,-18.544 -78.98,-18.498 -78.908,-18.281 -77.82,-18.375 -77.85,-18.526 	"/>
	<polygon fill="#D1D1D1" points="-99.809,-64.414 -98.158,-64.621 -98.5,-68.301 -98.576,-68.004 -99.984,-68.134 -101.488,-67.373 
		-102.564,-67.441 -102.502,-65.779 -100.863,-65.94 -100.883,-64.736 	"/>
	<polygon fill="#D1D1D1" points="-94.156,-63.81 -93.613,-64.58 -94.852,-65.954 -96.287,-65.393 -96.82,-64.475 	"/>
	<polygon fill="#D1D1D1" points="-104.498,-61.586 -105.26,-61.992 -106.6,-61.918 -106.939,-61.659 -105.379,-60.401 	"/>
	<polygon fill="#D1D1D1" points="-94.268,-59.132 -93.195,-60.423 -92.004,-60.767 -90.51,-62.396 -94.504,-62.924 -96.018,-61.618 
		-95.408,-59.194 	"/>
	<polygon fill="#D1D1D1" points="-93.84,-70.174 -93.721,-70.451 -94.422,-70.908 -96.436,-70.944 -96.17,-70.26 	"/>
	<polygon fill="#D1D1D1" points="-100.98,-55.919 -104.465,-57.433 -105.402,-60.247 -107.516,-61.251 -108.396,-60.987 
		-107.686,-59.201 -108.188,-58.507 -109.92,-60.757 -111.051,-59.861 -112.439,-60.747 -114.664,-60.213 -114.168,-61.045 
		-115.189,-61.394 -119.4,-58.354 -116.113,-57.944 -118.432,-57.3 -117.904,-56.717 -112.416,-56.444 -117.34,-55.819 
		-116.107,-54.636 -115.219,-54.801 -113.854,-54.401 -113.312,-53.721 -105.959,-54.653 -102.43,-54.032 -102.094,-54.565 
		-102.73,-55.133 -101.09,-55.253 	"/>
	<polygon fill="#D1D1D1" points="-90.199,-80.89 -87.6,-78.438 -81.848,-78.274 -83.408,-77.146 -84.197,-77.479 -86.932,-77.609 
		-85.379,-73.97 -87.152,-73.324 -87.963,-72.305 -86.34,-71.812 -84.977,-70.22 -87.648,-71.281 -88.26,-71.106 -87.768,-69.36 
		-89.615,-68.832 -89.49,-67.743 -80.561,-67.093 -77.889,-68.433 -77.91,-68.994 -79.619,-68.904 -79.76,-69.434 -75.393,-72.706 
		-76.219,-74.029 -75.529,-74.523 -76.906,-74.875 -73.881,-75.178 -73.242,-75.764 -71.18,-76.249 -65.48,-81.749 -67.658,-81.731 
		-61.895,-84.935 -61.85,-86.002 -72.832,-88.568 -75.719,-87.828 -76.25,-88.298 -82.42,-86.958 -83.18,-84.771 -84.26,-85.885 
		-85.5,-86.098 -86.969,-84.614 -91.586,-83.151 	"/>
	<polygon fill="#D1D1D1" points="-80.875,-61.428 -79.486,-60.37 -76.252,-60.519 -76.34,-61.011 -78.064,-62.015 -80.352,-62.215 
		-80.834,-62.09 	"/>
	<polygon fill="#D1D1D1" points="-79.656,-45.113 -79.266,-45.695 -79.52,-45.926 -79.93,-45.949 -80.361,-45.537 -80.1,-45.207 	
		"/>
	<polygon fill="#D1D1D1" points="-75.217,-52.2 -75.113,-52.979 -75.895,-53.368 -76.812,-53.173 -76.986,-51.733 -75.865,-51.8 	
		"/>
	<polygon fill="#D1D1D1" points="-80.104,-47.494 -80.816,-47.887 -81.553,-47.795 -81.641,-48.365 -84.465,-49.494 
		-84.977,-49.302 -85.16,-49.854 -85.885,-49.957 -86.352,-47.861 -87.221,-47.277 -85.867,-47.391 -85.523,-46.709 -83.109,-47.94 
		-82.547,-47.407 -80.99,-47.125 	"/>
	<polygon fill="#D1D1D1" points="-66.721,-50.794 -63.918,-49.03 -61.852,-51.417 -63.426,-51.505 -68.805,-53.985 -66.969,-54.662 
		-68.785,-56.692 -71.199,-57.317 -72.242,-58.351 -74.1,-57.979 -74.229,-58.7 -77.822,-60.383 -80.75,-59.195 -82.314,-62.198 
		-84.85,-61.44 -85.773,-60.006 -86.562,-61.109 -85.826,-62.297 -88.406,-61.803 -89.887,-57.804 -88.467,-57.797 -89.514,-57.065 
		-88.682,-56.515 -79.492,-55.686 -78.957,-56.137 -78.17,-55.617 -77.287,-55.531 -76.229,-54.606 -76.867,-54.237 
		-73.311,-53.062 -72.65,-51.983 -74.295,-50.051 -73.961,-49.599 -77.896,-49.416 -78.555,-48.508 -77.711,-48.094 
		-74.818,-48.285 -74.834,-48.638 -71.887,-47.439 -72.234,-47.109 -66.164,-45.441 -68.783,-47.518 -65.014,-46.276 
		-65.32,-48.277 -68.143,-49.895 -68.014,-50.631 	"/>
	<polygon fill="#D1D1D1" points="-53.521,-31.547 -53.068,-31.575 -52.648,-32.25 -53.086,-33.151 -53.785,-33.017 -53.477,-33.598 
		-54.475,-33.845 -54.936,-33.648 -55.822,-33.868 -55.473,-34.151 -56.143,-34.325 -56.795,-34.05 -55.406,-35.515 
		-55.871,-35.552 -59.23,-33.021 -58.797,-32.808 -59.42,-32.532 -59.266,-32.303 -55.289,-32.138 -55.996,-31.776 -55.4,-31.751 
		-54.24,-32.419 -53.963,-32.319 -54.178,-31.69 	"/>
	<polygon fill="#D1D1D1" points="-98.219,-56.101 -99.797,-54.979 -98.432,-54.318 -97.617,-54.479 -96.27,-54.038 -95.648,-54.548 
			"/>
	<polygon fill="#D1D1D1" points="-97.119,-61.678 -97.381,-62.215 -99.162,-61.98 -100.355,-62.372 -101.539,-61.477 
		-100.438,-60.306 -102.48,-60.524 -102.5,-59.964 -99.322,-58.021 -98.359,-57.886 -96.721,-58.521 -96.539,-60.052 
		-98.053,-60.81 	"/>
	<polygon fill="#D1D1D1" points="-94.973,-75.014 -93.145,-75.036 -93.949,-73.304 -92.877,-72.23 -89.035,-72.087 -85.814,-74.913 
		-87.811,-77.821 -91.133,-79.101 -92.408,-80.882 -94.736,-80.707 -94.299,-79.935 -95.322,-79.702 -96.711,-77.322 	"/>
	<polygon fill="#D1D1D1" points="-83.992,-46.025 -83.773,-45.722 -83.068,-45.695 -81.898,-46.318 -81.877,-46.539 -83.25,-46.551 
			"/>
	<polygon fill="#D1D1D1" points="-88.15,-63.419 -81.949,-63.516 -79.834,-64.466 -81.129,-66.096 -89.188,-65.876 -90.969,-66.867 
		-90.74,-67.691 -91.605,-68.434 -93.572,-68.429 -94.684,-69.172 -96.744,-69.32 -97.121,-68.371 -95.963,-67.674 -93.893,-67.402 
		-92.422,-64.295 	"/>
	<polygon fill="#D1D1D1" points="-61.836,-33.629 -64.174,-34.168 -64.52,-34.099 -62.295,-33.468 -61.807,-33.482 	"/>
	<polygon fill="#D1D1D1" points="-123.092,-57.288 -115.51,-61.688 -117.555,-63.021 -124.918,-63.227 -123.939,-62.066 
		-125.928,-58.87 -123.619,-57.995 	"/>
	<polygon fill="#D1D1D1" points="-63.664,-31.495 -64.014,-31.866 -64.393,-31.63 -64.143,-31.376 -62.875,-31.056 -62.504,-31.104 
		-62.012,-31.414 	"/>
	<polygon fill="#D1D1D1" points="-98.123,-71.565 -97.311,-70.984 -95.828,-71.5 -95.559,-72.426 -97.338,-73.521 -98.633,-73.63 	
		"/>
	<polygon fill="#D1D1D1" points="-119.898,-66.821 -118.039,-67.763 -117.105,-67.871 -116.197,-70.479 -119.104,-70.156 
		-122.854,-66.959 -121.5,-66.491 	"/>
	<polygon fill="#D1D1D1" points="-132.711,-37.633 -133.238,-37.465 -131.576,-36.017 -131.178,-36.015 -132.049,-36.706 
		-131.748,-37.704 	"/>
	<polygon fill="#D1D1D1" points="-117.711,-65.072 -116.312,-64.708 -111.793,-64.949 -113.869,-64.062 -113.742,-63.422 
		-106.314,-64.631 -105.881,-66.641 -106.928,-66.733 -107.818,-66.375 -108.549,-68.206 -109.58,-68.469 -110.496,-67.648 
		-109.066,-65.59 -110.814,-65.748 -115.404,-67.758 	"/>
	<polygon fill="#D1D1D1" points="-104.211,-73.107 -105.176,-72.326 -99.672,-71.125 -100.824,-73.438 -105.492,-74.812 
		-105.42,-73.755 	"/>
	<polygon fill="#D1D1D1" points="-109.662,-72.906 -111.498,-73.569 -112.525,-72.771 -112.543,-72.398 -110.881,-72.396 	"/>
	<polygon fill="#D1D1D1" points="-110.186,-70.605 -109.854,-71.348 -111.264,-71.743 -112.725,-71.484 -113.533,-70.691 
		-112.051,-69.908 	"/>
	<polygon fill="#D1D1D1" points="-67.289,30.829 -66.961,30.461 -66.449,30.783 -65.5,30.737 -65.051,30.282 -67.75,29.521 
		-68.635,28.464 -69.346,28.362 -71.107,29.722 -74.662,28.638 -68.148,31.116 	"/>
	<polygon fill="#D1D1D1" points="-74.963,-14.589 -74.297,-14.659 -74.178,-14.789 -75.67,-15.04 -75.598,-15.197 -82.268,-16.421 
		-84.975,-15.69 -84.053,-15.698 -83.908,-15.837 -83.494,-15.845 -82.775,-16.138 -81.795,-16.108 -82.17,-15.968 -78.719,-15.523 
		-78.137,-15.043 -77.086,-14.86 -77.756,-14.552 	"/>
	<polygon fill="#D1D1D1" points="9.229,-27.74 9.391,-28.891 8.545,-28.356 8.775,-27.883 	"/>
	<polygon fill="#D1D1D1" points="-62.234,-81.101 -68.021,-77.198 -65.322,-76.126 -65.711,-75.076 -73.158,-72.463 
		-73.297,-71.467 -66.764,-69.828 -71.402,-68.963 -68.504,-66.839 -61.268,-66.928 -54.717,-60.097 -55.834,-58.513 -55,-58.104 
		-54.004,-58.335 -51.391,-56.763 -54.359,-57.16 -54.684,-55.291 -53.455,-54.806 -50.871,-55.771 -51.477,-53.999 -52.98,-53.468 
		-53.969,-51.854 -53.301,-51.384 -53.66,-50.419 -48.264,-44.271 -46.264,-44.268 -44.787,-43.402 -43.379,-43.467 
		-39.812,-49.604 -22.35,-56.079 -26.361,-56.229 -25.201,-57.051 -25.543,-58.144 -23.535,-56.608 -21.754,-56.911 
		-23.443,-59.227 -24.793,-59.653 -24.277,-60.116 -22.301,-59.403 -23.566,-61.38 -20.762,-61.667 -20.434,-62.322 
		-21.594,-63.094 -19.371,-63.232 -20.668,-64.938 -19.6,-65.125 -19.834,-66.918 -21.68,-68.092 -20.035,-68.814 -18.473,-68.91 
		-17.73,-77.234 -20.047,-77.381 -16.85,-77.915 -12.209,-80.999 -12.77,-82.509 -15.768,-83.22 -23.17,-80.524 -22.072,-82.565 
		-22.904,-83.896 -24.844,-82.757 -27.857,-84.044 -31.396,-83.627 -31.898,-84.306 -22.691,-84.855 -20.846,-86.403 
		-27.102,-89.864 -38.621,-90 -39.896,-88.334 -43.406,-88.533 -46.764,-85.999 -46.9,-84.304 -44.521,-82.299 -50.391,-85.239 
		-53.043,-83.13 -54.135,-84.304 -62.65,-82.696 	"/>
	<polygon fill="#D1D1D1" points="-73.453,-13.646 -71.707,-13.552 -71.656,-13.394 -71.4,-13.306 -71,-13.682 -70.67,-13.761 
		-70.518,-13.628 -70.133,-13.661 -69.951,-13.762 -68.689,-13.64 -68.318,-13.863 -68.809,-14.065 -69.256,-14.085 -69.223,-14.25 
		-69.77,-14.239 -69.949,-14.438 -71.586,-14.567 -71.713,-14.472 -73.189,-14.584 -73.414,-14.431 -72.783,-14.345 
		-72.793,-14.133 -72.336,-13.894 -72.695,-13.771 -74.369,-13.893 -74.459,-13.715 -73.924,-13.543 	"/>
	<polygon fill="#D1D1D1" points="-76.896,-13.747 -78.219,-13.776 -78.338,-13.65 -77.205,-13.362 -76.199,-13.464 -76.365,-13.615 
			"/>
	<polygon fill="#D1D1D1" points="-67.1,-13.812 -67.242,-13.732 -67.184,-13.497 -65.846,-13.513 -65.592,-13.651 -65.771,-13.761 	
		"/>
	<polygon fill="#D1D1D1" points="-61.77,-9.22 -60.936,-9.276 -60.895,-9.673 -61.68,-9.622 -61.658,-9.413 -61.949,-9.267 	"/>
	<polygon fill="#D1D1D1" points="-159.691,-16.075 -160.307,-15.724 -159.418,-15.453 -158.975,-15.661 -159.031,-16.041 	"/>
	<polygon fill="#D1D1D1" points="-157.83,-15.158 -157.924,-15.073 -157.045,-15.047 -157.035,-15.011 -156.559,-14.74 
		-156.281,-14.773 -156.309,-14.749 -156.258,-14.669 -156.463,-14.466 -156.312,-14.011 -155.609,-13.787 -154.402,-14.381 
		-155.699,-14.95 -155.496,-15.114 -156.354,-15.351 -156.301,-15.452 -157.404,-15.506 -157.984,-15.815 -158.822,-15.539 
		-158.355,-15.188 	"/>
	<polygon fill="#D1D1D1" points="-171.062,-47.546 -172.045,-47.902 -172.16,-47.035 -171.656,-46.82 -170.805,-46.885 
		-169.531,-46.402 -168.473,-46.742 -168.23,-47.115 -170.434,-47.668 	"/>
	<polygon fill="#D1D1D1" points="-164.564,-51.229 -168.643,-49.898 -166.691,-48.5 -164.994,-48.162 -163.619,-48.294 
		-162.641,-47.962 -162.199,-48.348 -161.721,-48.469 -162.033,-48.27 -161.285,-47.98 -161.158,-47.61 -161.631,-47.385 
		-162.402,-47.491 -163.172,-46.956 -163.699,-47.098 -164.84,-46.979 -166.523,-44.924 -165.709,-44.434 -165.703,-43.867 
		-166.488,-43.962 -168.145,-43.659 -166.201,-42.896 -165.191,-43.162 -165.309,-43.654 -163.934,-42.941 -162.633,-43.141 
		-162.268,-42.932 -162.301,-41.817 -161.232,-41.816 -160.514,-42.105 -159.98,-41.389 -159.627,-41.864 -159.078,-41.438 
		-158.486,-41.836 -158.268,-41.719 -157.781,-41.848 -158.062,-41.008 -165.404,-38.162 -164.963,-37.737 -160.234,-38.891 
		-159.529,-38.817 -152.846,-42.205 -153.539,-42.675 -152.006,-43.604 -152.014,-42.235 -147.615,-43.197 -147.826,-43.954 
		-147.166,-44.089 -134.352,-41.288 -130.521,-38.018 -130.514,-37.854 -129.305,-37.21 -129.131,-36.509 -127.85,-36.143 
		-127.436,-34.883 -123.277,-33.524 -122.893,-32.798 -123.756,-32.958 -123.51,-33.011 -125.756,-34.442 -128.357,-34.833 
		-128.443,-34.643 -128.059,-34.198 -124.818,-33.077 -120.51,-22.969 -119.596,-22.907 -119.234,-22.735 -118.789,-22.71 
		-118.695,-22.553 -117.615,-22.174 -117.395,-21.752 -116.994,-21.77 -114.162,-19.544 -114.199,-19.276 -114.57,-19.057 
		-114.982,-19.089 -115.055,-19.045 -113.598,-18.408 -113.465,-18.484 -112.301,-18.043 -112.182,-17.308 -110.031,-16.214 
		-109.854,-16.211 -109.434,-16.42 -109.408,-16.521 -110.174,-17.036 -110.654,-17.055 -112.961,-19.46 -113.139,-19.451 
		-114.936,-21.248 -114.775,-21.497 -114.205,-21.328 -113.871,-21.354 -111.178,-19.174 -110.641,-19.125 -109.801,-18.43 
		-109.291,-18.294 -109.443,-17.936 -105.266,-15.425 -105.271,-15.23 -105.5,-15.085 -105.396,-14.927 -105.73,-14.872 
		-96.557,-12.247 -93.875,-12.401 -87.904,-10.896 -87.795,-11.021 -87.49,-10.977 -87.316,-10.81 -87.393,-10.771 -87.557,-10.852 
		-87.67,-10.769 -85.713,-9.797 -85.941,-9.694 -85.658,-9.619 -85.797,-9.29 -85.66,-9.183 -85.34,-9.131 -85.111,-8.983 
		-84.91,-9.11 -84.977,-9.265 -84.713,-9.17 -84.646,-9.015 -83.633,-8.717 -83.596,-8.6 -83.711,-8.508 -82.85,-8.2 
		-82.818,-8.315 -81.721,-8.22 -81.52,-8.007 -81.189,-7.976 -81.059,-8.065 -80.887,-7.751 -80.004,-7.923 -80.48,-8.209 
		-80.383,-8.318 -79.76,-8.47 -79.557,-8.654 -79.119,-8.688 -78.621,-8.54 -78.436,-8.366 -78.182,-8.329 -78.428,-8.188 
		-77.318,-7.028 -77.531,-6.891 -77.307,-6.411 -77.496,-6.107 -77.129,-5.983 -77.932,-5.379 -78.428,-5.344 -78.662,-5.154 
		-78.617,-4.893 -78.99,-4.854 -78.855,-4.691 -80.09,-4.372 -80.02,-4.159 -80.582,-3.498 -80.934,-3.418 -80.766,-2.945 
		-80.967,-2.797 -80.369,-2.568 -79.986,-2.811 -79.77,-2.583 -81.41,-1.496 -80.926,-0.995 -81.25,-0.761 -76.26,3.162 
		-76.424,3.316 -71.461,5.234 -71.375,5.46 -70.371,5.776 -73.166,16.929 -73.588,16.951 -74.33,21.102 -73.701,21.203 
		-73.389,20.315 -72.717,20.504 -73.24,21.992 -74.352,21.735 -75.645,23.627 -74.127,23.85 -75.607,25.197 -74.945,28.143 
		-71.43,29.528 -71.008,29.508 -70.844,28.69 -69.461,28.169 -68.15,28.219 -69.139,26.859 -65.641,24.077 -66.596,23.922 
		-67.58,23.365 -67.293,22.802 -66.51,22.422 -65.564,22.419 -65.182,21.296 -63.459,20.63 -63.756,20.264 -64.303,20.486 
		-64.979,20.273 -65.117,19.58 -64.732,19.399 -63.77,19.651 -62.146,19.312 -62.336,18.057 -57.75,17.627 -56.736,16.464 
		-57.361,16.183 -57.225,15.74 -58.494,15.195 -58.428,14.866 -57.818,15.215 -57.139,15.194 -56.215,15.467 -55.674,15.399 
		-54.936,15.526 -48.889,11.665 -48.496,10.021 -41.988,8.355 -41.754,8.017 -40.945,7.771 -38.674,2.906 -38.424,2.895 
		-35.129,0.745 -35.236,-1.113 -43.42,-2.727 -44.58,-2.564 -44.418,-2.854 -44.906,-3.16 -47.824,-3.667 -48.584,-3.324 
		-48.621,-3.848 -50.389,-3.93 -50.699,-4.088 -49.947,-4.518 -49.973,-4.877 -50.508,-4.963 -51.316,-6.168 -51.656,-6.144 
		-55.842,-7.085 -55.949,-6.99 -57.146,-7.095 -58.078,-7.534 -58.455,-7.547 -58.482,-7.818 -60.15,-8.479 -60.672,-8.468 
		-60.83,-8.892 -62.389,-9.191 -62.729,-9.442 -61.881,-9.599 -64.318,-9.559 -64.328,-9.425 -64.891,-9.26 -68.195,-9.513 
		-68.232,-9.688 -68.883,-9.985 -69.584,-9.994 -69.943,-10.369 -70.295,-10.2 -70.156,-9.949 -71.4,-9.733 -71.35,-9.331 
		-71.039,-9.145 -71.266,-8.762 -71.695,-8.729 -72.074,-9.146 -71.633,-9.456 -71.619,-9.733 -71.945,-9.975 -71.359,-10.036 
		-71.137,-10.343 -71.4,-10.483 -71.756,-10.517 -73.414,-9.87 -74.197,-9.915 -74.275,-9.804 -74.906,-9.794 -75.48,-9.547 
		-75.674,-8.923 -76.836,-8.498 -79.059,-8.93 -79.021,-8.981 -79.572,-9.013 -81.439,-8.576 -81.715,-8.706 -81.809,-8.663 
		-82.207,-8.688 -82.188,-8.8 -83.809,-9.805 -83.855,-9.948 -83.65,-10.085 -83.627,-10.454 -83.473,-10.507 -83.412,-11.338 
		-83.182,-11.521 -83.232,-11.839 -83.146,-11.892 -87.523,-12.325 -87.615,-12.369 -87.9,-12.361 -88.121,-12.266 -88.518,-12.356 
		-88.604,-12.275 -88.93,-12.374 -88.732,-12.562 -88.551,-12.579 -88.24,-12.999 -88.303,-13.052 -88.197,-13.247 -88.285,-13.331 
		-88.105,-13.718 -88.297,-13.721 -88.301,-13.802 -88.09,-13.811 -87.838,-13.669 -87.436,-14.338 -87.621,-14.435 
		-86.811,-15.374 -87.053,-15.492 -90.279,-15.188 -90.771,-14.233 -94.426,-13.606 -94.84,-13.836 -95.9,-13.981 -97.703,-17.04 
		-97.289,-17.767 -96.584,-17.799 -96.842,-18.999 -93.801,-20.045 -91.727,-20.01 -91.016,-19.707 -90.066,-19.684 -89.76,-19.775 
		-89.357,-19.681 -88.691,-19.956 -89.066,-20.166 -89.053,-20.387 -89.078,-20.41 -86.453,-20.451 -85.076,-19.98 -84.09,-20.248 
		-83.029,-19.52 -83.229,-19.135 -81.453,-17.42 -80.646,-17.306 -80.096,-17.439 -80.996,-21.205 -75.355,-23.801 -75.648,-24.82 
		-73.615,-27.035 -71.201,-27.344 -71.641,-27.539 -69.656,-27.775 -69.641,-27.814 -69.629,-27.814 -69.494,-28.182 
		-70.459,-28.685 -70.459,-28.738 -69.879,-29.222 -66.527,-30.118 -66.775,-30.466 -64.426,-30.551 -66.16,-29.942 
		-66.123,-29.327 -65.363,-29.274 -59.803,-31.021 -60.447,-31.292 -60.518,-31.845 -61.52,-30.993 -63.174,-30.884 
		-64.471,-31.259 -65.115,-32.666 -64.17,-33.194 -65.057,-33.585 -69.24,-32.472 -69.268,-32.488 -70.256,-31.827 -71.104,-31.702 
		-66.398,-34.39 -60.031,-34.4 -55.684,-35.986 -55.756,-36.954 -56.158,-37.285 -56.936,-37.402 -57.334,-38.157 -61.799,-39.737 
		-61.396,-40.334 -64.584,-43.717 -67.648,-41.545 -68.375,-42.135 -69.287,-42.293 -69.59,-44.49 -71.373,-44.572 -73.84,-46.016 
		-74.668,-45.721 -77.41,-46.137 -78.107,-45.875 -77.338,-43.21 -78.516,-42.139 -76.621,-40.559 -77.096,-39.267 -79.828,-38.195 
		-78.602,-36.341 -79.143,-35.468 -79.912,-35.196 -82.125,-36.96 -82.271,-38.632 -90.896,-40.639 -92.297,-40.448 
		-93.217,-42.115 -94.684,-42.283 -91.932,-46.46 -90.77,-46.604 -90.703,-47.358 -89.914,-47.857 -88.482,-47.938 -85.768,-51.017 
		-84.734,-50.623 -81.387,-51.749 -81.26,-52.409 -81.965,-53.15 -81.279,-54.626 -82.621,-55.364 -85.521,-55.702 -87.35,-51.868 
		-88.318,-52.789 -88.02,-53.834 -89.215,-54.77 -90.551,-53.634 -90.547,-55.123 -92.406,-55.427 -91.52,-56.175 -93.891,-58.688 
		-95.209,-58.956 -96.471,-56.018 -94.232,-54.49 -94.686,-53.054 -95.488,-53.093 -96.127,-51.995 -96.119,-53.301 -97.67,-53.782 
		-98.559,-53.534 -98.443,-52.663 -101.453,-52.479 -103.221,-53.104 -104.338,-52.991 -106.148,-54.101 -108.168,-53.89 
		-108.812,-53.403 -107.793,-52.809 -108.881,-52.115 -109.945,-52.938 -115.305,-52.83 -113.898,-53.526 -122.684,-55.661 
		-123.061,-55.222 -124.289,-54.979 -124.424,-56.124 -125.758,-55.099 -127.447,-56.462 -128.137,-56.628 -128.359,-55.9 
		-129.107,-55.546 -129.795,-56.179 -132.928,-55.135 -134.414,-55.317 -136.504,-54.241 -140.627,-55.375 -140.627,-55.573 
		-143.553,-56.319 -144.896,-56.068 -149.695,-56.899 -150.732,-56.74 -151.889,-56.94 -151.822,-57.34 -154.062,-57.467 
		-154.287,-57.31 -154.809,-57.828 -156.67,-58.248 -158.24,-57.37 -159.115,-57.473 -164.588,-54.45 -166.453,-54.401 
		-167.205,-53.393 -162.256,-50.613 -163.387,-50.587 -163.254,-51.229 	"/>
	<polygon fill="#D1D1D1" points="-153.285,-41.502 -155.062,-40.893 -154.846,-40.264 -154.035,-39.871 -151.674,-40.918 
		-152.357,-41.408 	"/>
	<polygon fill="#D1D1D1" points="166.631,3.749 166.791,4.312 167,4.283 167.27,4.352 167.107,3.915 	"/>
	<polygon fill="#D1D1D1" points="167.18,4.58 167.514,4.816 167.844,4.746 167.217,4.434 	"/>
	<polygon fill="#D1D1D1" points="74,-6.062 72.998,-6.062 72.998,-5.537 74,-5.537 	"/>
	<polygon fill="#D1D1D1" points="-175.998,7.808 -174.998,7.808 -174.998,7.247 -175.998,7.247 	"/>
	<polygon fill="#D1D1D1" points="-172.998,3.411 -171.998,3.411 -171.998,2.874 -172.998,2.874 	"/>
</g>
<rect x="-179.998" y="-90" fill="none" stroke="#000000" stroke-width="0.1" stroke-miterlimit="10" width="359.998" height="180"/>
</svg>
