<?xml version="1.0" encoding="utf-8"?>
<!-- Generator: Adobe Illustrator 15.1.0, SVG Export Plug-In . SVG Version: 6.00 Build 0)  -->
<!DOCTYPE svg PUBLIC "-//W3C//DTD SVG 1.1//EN" "http://www.w3.org/Graphics/SVG/1.1/DTD/svg11.dtd">
<svg version="1.1" id="Calque_1" xmlns="http://www.w3.org/2000/svg" xmlns:xlink="http://www.w3.org/1999/xlink" x="0px" y="0px"
	 width="180px" height="90px" viewBox="0 0 180 90" enable-background="new 0 0 180 90" xml:space="preserve">
<g id="Calque_2">
	
		<rect x="-179.998" y="-90" fill="none" stroke="#000000" stroke-width="0.1" stroke-miterlimit="10" width="359.998" height="180"/>
</g>
<polygon fill="#D1D1D1" points="-32.75,-14 -37.001,-14.706 -39.877,-17.353 -42.753,-20 -46.073,-21.849 -49.394,-23.698 
	-52.714,-25.547 -56.034,-27.396 -55.463,-29.091 -54.321,-32.48 -53.75,-34.175 -57.75,-37.167 -63.164,-39.02 -68.783,-40.125 
	-74.178,-37.5 -78.98,-36.833 -80.875,-34.175 -79.435,-28.943 -77.994,-23.711 -76.554,-18.479 -75.113,-13.247 -77.068,-12.288 
	-79.023,-11.329 -80.979,-10.37 -82.935,-9.411 -83.445,-7.282 -83.955,-5.153 -84.465,-3.024 -84.975,-0.895 -88.977,0.247 
	-92.978,1.389 -96.979,2.531 -100.98,3.673 -106.448,6.192 -111.917,14.711 -117.386,17.23 -122.854,19.75 -126.016,23.816 
	-129.177,27.883 -132.338,31.949 -135.5,36.015 -138.75,36.979 -142,37.943 -145.25,38.907 -148.5,39.871 -152.125,38.525 
	-155.75,37.18 -159.375,35.835 -163,34.489 -164.725,35.384 -166.449,36.279 -168.174,37.174 -169.898,38.069 -169.898,42.319 
	-169.898,46.569 -169.898,50.82 -169.898,55.07 -167.015,56.604 -164.132,58.139 -161.249,59.674 -158.365,61.208 -153.524,60.494 
	-148.683,59.781 -143.841,59.067 -139,58.354 -136.625,58.504 -134.25,58.654 -131.875,58.805 -129.5,58.956 -122.597,58.539 
	-115.693,58.122 -108.789,57.705 -101.886,57.288 -99.23,58.223 -96.574,59.158 -93.918,60.093 -91.263,61.027 -87.693,58.703 
	-84.124,56.38 -80.555,54.057 -76.986,51.732 -72.963,50.477 -68.94,49.221 -64.918,47.965 -60.895,46.709 -58.296,44.036 
	-55.697,41.362 -53.099,38.688 -50.5,36.015 -50.188,34.697 -49.875,33.38 -49.562,32.062 -49.25,30.744 -54.785,28.92 
	-60.319,27.096 -65.854,25.272 -71.389,23.448 -71.389,22.247 -71.389,21.046 -71.389,19.845 -71.389,18.644 -67.979,17.47 
	-64.569,16.295 -61.16,15.12 -57.75,13.945 -50.25,12.458 -44.75,11.208 -36.75,9.5 -28.75,3.75 -27.5,-2.5 -27.5,-6 -27.5,-8.25 
	-29.5,-12.25 "/>
<polygon fill="#D1D1D1" points="179.688,-26.728 177.874,-28.845 176.061,-30.961 174.248,-33.078 167.324,-33.078 160.4,-33.078 
	153.477,-33.078 146.553,-33.078 141.764,-31.107 136.975,-29.137 132.188,-27.166 127.398,-25.196 123.884,-25.444 
	120.369,-25.692 116.854,-25.94 114.066,-26.078 112.242,-23.399 111.146,-20.611 110.049,-17.823 108.951,-15.034 108.055,-13.616 
	107.158,-12.197 106.262,-10.779 105.365,-9.361 102.273,-7.826 99.184,-6.292 96.092,-4.758 93,-3.223 92.545,-1.895 
	92.091,-0.565 91.637,0.763 91.182,2.092 90.386,2.501 89.591,2.911 88.795,3.32 88,3.729 87.438,2.562 86.875,1.396 86.312,0.229 
	85.75,-0.938 84.28,-1.725 82.811,-2.511 81.341,-3.297 79.871,-4.084 77.543,-3.737 75.215,-3.391 72.887,-3.044 70.559,-2.697 
	66.87,-3.148 66.065,-6.111 65.1,-9.913 63.169,-15.939 59.871,-19.961 51.239,-21.329 50.25,-24.75 47.5,-26.21 45.989,-27.701 
	41.25,-28.75 36.511,-29.799 33.75,-37.2 29.5,-40.125 26.938,-40.125 24.375,-40.125 21.812,-40.125 19.25,-40.125 12.5,-38.25 
	9.75,-33.75 6.338,-29.15 5.088,-24.9 5,-18 4.5,-11.75 4.89,-6.853 3.25,-3.499 -0.057,-3.819 -3.363,-4.139 -6.67,-4.459 
	-9.977,-4.779 -12.67,-3.625 -15.363,-2.471 -18.057,-1.317 -20.75,-0.163 -22.833,2.833 -26.667,7.093 -27.5,11.833 -27.5,16.718 
	-24.326,18.644 -20,21 -17.633,22.333 -13.609,22.576 -13.609,24.259 -13.609,25.942 -13.609,27.625 -13.609,29.309 -13.259,33.231 
	-12.909,37.154 -12.559,41.077 -12.209,45 -2.584,49.007 7.04,53.014 16.665,57.021 26.289,61.027 30.928,60.342 35.567,59.655 
	40.207,58.969 44.846,58.283 49.447,61.648 54.048,65.014 58.649,68.379 63.25,71.743 64.624,71.743 65.997,71.743 67.371,71.743 
	68.744,71.743 70.308,70.43 71.872,69.117 73.436,67.805 75,66.491 76.697,67.07 78.394,67.648 80.09,68.227 81.787,68.805 
	82.965,71.182 84.144,73.557 85.322,75.932 86.5,78.309 88.698,79.605 90.896,80.904 93.096,82.202 95.293,83.5 97.997,82.082 
	100.701,80.665 103.404,79.248 106.109,77.83 109.189,76.162 112.271,74.494 115.352,72.826 118.434,71.158 122.352,70.912 
	126.271,70.666 130.191,70.42 134.111,70.174 137.689,69.752 141.268,69.329 144.846,68.906 148.425,68.484 150.572,66.861 
	152.721,65.238 154.867,63.615 157.016,61.992 159.498,61.277 161.982,60.562 164.467,59.848 166.95,59.132 170.213,60.453 
	173.475,61.773 176.736,63.094 180,64.414 180,60.975 179.999,53.332 179.997,45.503 179.992,41.502 178.486,40.636 175.184,39.703 
	171.88,38.958 170.379,38.653 168.791,36.956 167.204,35.26 165.617,33.563 164.029,31.866 160.128,31.664 156.227,31.461 
	152.326,31.258 148.425,31.055 147.957,29 147.488,26.944 147.02,24.888 146.553,22.833 143.006,21.785 139.459,20.738 
	135.912,19.691 132.365,18.644 130.93,17.847 129.492,17.049 128.057,16.251 126.619,15.453 127.238,11.538 128.435,7.682 
	130.875,4.375 139.818,7.093 148.425,6.062 156.02,5.105 162.398,4.303 166.51,2.665 167.844,0.237 169,-1.467 170.379,-3.749 
	172.637,-7.764 174.854,-8.163 177.068,-8.562 179.284,-8.962 181.5,-9.361 181.5,-13.174 181.5,-16.986 181.5,-20.799 
	181.5,-24.611 "/>
</svg>
