<?xml version="1.0" encoding="utf-8"?>
<!-- Generator: Adobe Illustrator 15.1.0, SVG Export Plug-In . SVG Version: 6.00 Build 0)  -->
<!DOCTYPE svg PUBLIC "-//W3C//DTD SVG 1.1//EN" "http://www.w3.org/Graphics/SVG/1.1/DTD/svg11.dtd">
<svg version="1.1" xmlns="http://www.w3.org/2000/svg" xmlns:xlink="http://www.w3.org/1999/xlink" x="0px" y="0px" width="180px"
	 height="90px" viewBox="0 0 180 90" enable-background="new 0 0 180 90" xml:space="preserve">
<g id="carted3js">
	<polygon fill="#D1D1D1" points="179.688,-19.728 177.874,-21.845 176.061,-23.961 174.248,-26.078 167.324,-26.078 160.4,-26.078 
		153.477,-26.078 146.552,-26.078 141.764,-24.107 136.975,-22.137 132.187,-20.166 127.398,-18.196 123.884,-18.444 
		120.369,-18.692 116.854,-18.94 113.34,-19.188 112.242,-16.399 111.146,-13.611 110.049,-10.823 108.951,-8.034 108.055,-6.616 
		107.158,-5.197 106.262,-3.779 105.365,-2.361 102.273,-0.826 99.183,0.708 96.092,2.242 93,3.777 92.545,5.105 92.091,6.435 
		91.637,7.763 91.182,9.092 90.386,9.501 89.591,9.911 88.795,10.32 88,10.729 87.438,9.562 86.875,8.396 86.312,7.229 85.75,6.062 
		84.28,5.275 82.811,4.489 81.341,3.703 79.871,2.916 77.543,3.263 75.215,3.609 72.887,3.956 70.559,4.303 69.419,5.994 
		68.279,7.685 67.14,9.376 66,11.067 63.312,10.298 60.625,9.529 57.938,8.76 55.25,7.991 54.318,6.444 53.387,4.897 52.455,3.35 
		51.523,1.803 51.893,-0.656 52.262,-3.116 52.631,-5.575 53,-8.034 51.489,-9.525 49.978,-11.017 48.467,-12.509 46.956,-14 
		42.217,-15.049 37.478,-16.098 32.739,-17.146 28,-18.196 25.438,-18.196 22.875,-18.196 20.312,-18.196 17.75,-18.196 
		15.765,-16.125 13.78,-14.055 11.796,-11.984 9.811,-9.913 8.171,-6.56 6.53,-3.206 4.89,0.147 3.25,3.501 -0.057,3.181 
		-3.363,2.861 -6.67,2.541 -9.977,2.221 -12.67,3.375 -15.363,4.529 -18.057,5.683 -20.75,6.837 -21.125,8.991 -21.5,11.145 
		-21.875,13.299 -22.25,15.453 -20.09,17.234 -17.93,19.015 -15.77,20.795 -13.609,22.576 -13.609,24.259 -13.609,25.942 
		-13.609,27.625 -13.609,29.309 -13.259,33.231 -12.909,37.154 -12.559,41.077 -12.209,45 -2.584,49.007 7.04,53.014 16.665,57.021 
		26.289,61.027 30.928,60.342 35.567,59.655 40.207,58.969 44.846,58.283 49.447,61.648 54.048,65.014 58.649,68.379 63.25,71.743 
		64.624,71.743 65.997,71.743 67.371,71.743 68.744,71.743 70.308,70.43 71.872,69.117 73.436,67.805 75,66.491 76.697,67.07 
		78.394,67.648 80.09,68.227 81.787,68.805 82.965,71.181 84.144,73.557 85.322,75.932 86.5,78.308 88.698,79.605 90.896,80.904 
		93.095,82.202 95.293,83.5 97.997,82.082 100.701,80.665 103.405,79.248 106.109,77.83 109.19,76.162 112.271,74.494 
		115.352,72.826 118.433,71.158 122.352,70.912 126.271,70.666 130.191,70.42 134.111,70.174 137.689,69.752 141.268,69.329 
		144.846,68.906 148.425,68.484 150.572,66.861 152.72,65.238 154.867,63.615 157.015,61.992 159.498,61.277 161.982,60.562 
		164.467,59.848 166.95,59.132 170.213,60.453 173.475,61.773 176.737,63.094 180,64.414 180,60.975 179.999,53.332 179.997,45.503 
		179.992,41.502 178.486,40.636 175.183,39.703 171.88,38.958 170.379,38.653 168.791,36.956 167.204,35.26 165.617,33.563 
		164.029,31.866 160.128,31.664 156.227,31.461 152.326,31.258 148.425,31.055 147.957,29 147.488,26.944 147.02,24.888 
		146.552,22.833 143.006,21.785 139.459,20.738 135.912,19.691 132.365,18.644 130.929,17.847 129.492,17.049 128.056,16.251 
		126.619,15.453 128.056,13.363 129.492,11.273 130.929,9.183 132.365,7.093 135.912,6.704 139.459,6.315 143.006,5.926 
		146.552,5.537 149.824,5.429 153.096,5.321 156.368,5.213 159.641,5.105 162.89,3.638 166.139,2.17 169.388,0.703 172.637,-0.764 
		174.853,-1.163 177.068,-1.562 179.284,-1.962 181.5,-2.361 181.5,-6.174 181.5,-9.986 181.5,-13.799 181.5,-17.611 
		179.688,-19.728 	"/>
</g>
<g id="Calque_2">
	
		<rect x="-179.998" y="-90" fill="none" stroke="#000000" stroke-width="0.1" stroke-miterlimit="10" width="359.998" height="180"/>
</g>
</svg>
