<?xml version="1.0" encoding="utf-8"?>
<!-- Generator: Adobe Illustrator 15.1.0, SVG Export Plug-In . SVG Version: 6.00 Build 0)  -->
<!DOCTYPE svg PUBLIC "-//W3C//DTD SVG 1.1//EN" "http://www.w3.org/Graphics/SVG/1.1/DTD/svg11.dtd">
<svg version="1.1" id="carted3js" xmlns="http://www.w3.org/2000/svg" xmlns:xlink="http://www.w3.org/1999/xlink" x="0px" y="0px"
	 width="180px" height="90px" viewBox="0 0 180 90" enable-background="new 0 0 180 90" xml:space="preserve">
<polygon fill="#D1D1D1" points="-162.572,-90 -180,-90 -180,-88.023 -179.941,-88.068 -179.057,-84.936 -177.256,-86.582 
	-176.084,-84.73 -175.828,-84.826 -174.383,-87.023 -172.889,-84.537 -169.949,-83.659 -167.021,-87.225 "/>
<polygon fill="#D1D1D1" points="-96.787,-51.07 -96.199,-52.042 -100.783,-52.008 -101.803,-51.67 -102.33,-50.97 -101.703,-50.676 
	-97.885,-51.27 "/>
<polygon fill="#D1D1D1" points="-159.207,-67.427 -161.127,-67.82 -163.713,-64.949 -163.105,-63.98 -161.244,-64.385 
	-160.244,-65.208 "/>
<polygon fill="#D1D1D1" points="-119.92,-54.082 -118.723,-53.757 -120.23,-54.893 -121.623,-54.744 -122.621,-54.082 
	-122.406,-53.471 -121.211,-53.792 "/>
<polygon fill="#D1D1D1" points="-43.334,-68.98 -50.48,-72.152 -52.852,-71.956 -54.164,-70.869 -48.66,-63.533 -48.152,-63.533 
	-46.662,-62.995 -43.92,-64.641 "/>
<polygon fill="#D1D1D1" points="-72.389,-51.979 -71.898,-51.305 -74.189,-51.773 -74.953,-51.271 -75.012,-50.581 -73.23,-49.746 
	-72.074,-49.811 -71.174,-46.499 -70.254,-46.271 -68.783,-51.439 -71.074,-52.012 "/>
<polygon fill="#D1D1D1" points="180,-88.023 180,-90 -143.209,-90 -143.107,-89.938 -142.891,-87.225 -146.828,-87.008 
	-150.061,-85.747 -150.902,-83.756 -153.586,-82.715 -152.861,-75.766 -156.838,-72.41 -154.408,-72.609 -152.098,-72.081 
	-150.648,-73.216 -146.418,-69.936 -146.77,-68.682 -149.531,-67.031 -155.328,-66.211 -158.365,-60.745 -156.973,-61.706 
	-153.742,-61.152 -152.92,-62.177 -146.104,-59.812 -146.201,-57.455 -144.908,-57.093 -144.322,-57.781 -117.469,-54.777 
	-116.217,-55.188 -113.943,-54.188 -112.299,-56.107 -111.26,-55.53 -107.559,-57.053 -104.877,-56.575 -100.645,-57.293 
	-100.115,-56.419 -101.252,-55.077 -102.545,-54.927 -103.68,-52.21 -99.137,-52.729 -97.688,-53.898 -92.439,-53.184 
	-91.42,-53.609 -90.09,-53.468 -89.227,-52.105 -88.424,-52.9 -87.268,-53.219 -86.014,-53.043 -85.191,-53.753 -81.471,-54.445 
	-80.297,-53.113 -79.297,-53.826 -77.926,-53.646 -76.221,-54.666 -67.955,-52.52 -67.74,-44.099 -57.811,-39.02 -57.223,-39.316 
	-59.045,-40.319 -59.789,-40.13 -62.021,-40.843 -62.648,-41.694 -62.119,-42.594 -63.744,-43.002 -65.664,-44.959 -61.963,-55.568 
	-70.602,-60.164 -77.24,-60.342 -76.926,-61.245 -75.398,-61.659 -73.656,-63.186 -74.771,-63.977 -76.496,-63.729 -77.926,-64.38 
	-58.223,-80.561 -49.762,-74.604 -47.273,-74.534 -42.809,-75.913 -40.771,-73.284 -28.551,-69.936 -29.686,-66.755 
	-35.641,-67.311 -35.777,-64.279 -15.406,-54.927 -16.465,-54.482 -10.295,-49.932 -9.102,-50.025 -8.611,-50.574 -7.418,-50.639 
	-6.867,-49.395 -5.789,-49.551 -5.535,-50.154 -0.658,-49.867 -0.229,-50.542 7.742,-47.775 8.486,-48.165 9.525,-47.956 
	10.818,-49.238 11.953,-48.928 12.404,-48.316 13.424,-47.896 14.736,-47.986 15.127,-48.561 15.947,-47.986 21.453,-48.046 
	22.57,-49.021 31.99,-47.422 33.871,-45.73 34.908,-45.955 35.301,-46.465 36.16,-46.811 37.199,-46.693 38.648,-47.6 
	39.668,-47.246 40.021,-46.607 46.504,-44.472 47.443,-44.633 48.99,-43.781 49.93,-43.808 50.754,-43.493 50.949,-43.028 
	53.613,-42.217 57.158,-42.67 57.256,-43.234 62.389,-45.041 64.053,-44.204 68.891,-44.932 69.557,-47.451 67.812,-48.408 
	67.947,-49.021 69.066,-48.989 67.947,-50.902 68.715,-51.434 69.869,-51.6 71.025,-51.298 73.865,-47.747 77.645,-47.13 
	82.775,-43.939 86.752,-43.86 87.986,-42.619 88.828,-43.598 99.719,-43.992 102.832,-41.793 106.182,-43.572 113.605,-42.191 
	115.602,-43.261 116.699,-43.208 118.578,-43.887 120.869,-43.912 122.32,-43.08 134.758,-42.619 135.07,-41.475 136.617,-43.363 
	145.49,-43.546 146.195,-43.966 145.998,-44.472 153.639,-46.295 154.285,-45.814 159.18,-47.333 159.67,-47.926 162.688,-49.083 
	167.309,-49.238 171.205,-50.639 169.287,-54.079 167.975,-54.371 167.387,-55.04 166.096,-55.454 164.744,-63.877 166.604,-64.229 
	166.994,-65.359 161.768,-66.482 159.787,-71.886 169.404,-83.372 172.283,-84.438 173.223,-86.371 175.986,-85.035 "/>
<polygon fill="#D1D1D1" points="-124.031,-54.484 -127.283,-53.721 -126.559,-53.328 "/>
<polygon fill="#D1D1D1" points="-66.289,-69.682 -61.883,-70.105 -60.609,-67.807 -60.16,-72.068 -62.256,-71.615 -64.488,-71.809 
	"/>
<polygon fill="#D1D1D1" points="70.279,-26.025 68.744,-26.078 68.936,-25.159 70.523,-25.508 70.559,-25.66 "/>
<polygon fill="#D1D1D1" points="148.289,-19.449 148.361,-20.276 148.018,-20.52 147.914,-21.092 147.564,-20.896 146.871,-21.396 
	146.047,-21.336 144.742,-19.332 146.365,-19.631 147.688,-19.403 "/>
<polygon fill="#D1D1D1" points="127.066,-3.314 128.359,-3.881 129.623,-3.934 129.408,-3.638 130.34,-3.066 130.184,-2.932 
	131.225,-2.438 132.574,-2.4 132.557,-2.128 131.826,-1.953 132.357,-1.875 134.393,-2.362 134.68,-2.309 135.297,-2.473 
	135.883,-2.32 136.258,-2.366 136.492,-2.264 136.951,-2.527 136.305,-3.031 135.961,-3.049 136.078,-3.263 135.428,-3.797 
	135.498,-3.949 139.109,-5.07 139.26,-5.239 140.217,-5.426 140.875,-5.238 141.65,-2.845 141.842,-2.736 141.688,-2.557 
	142.516,-1.631 142.867,-2.225 143.115,-2.289 143.922,-3.707 144.564,-3.504 145.375,-3.942 145.637,-4.92 145.889,-4.986 
	146.387,-6.112 148.848,-6.907 148.719,-7.042 149.678,-8.001 150.076,-7.877 150.482,-8.122 150.727,-8.034 153.135,-10.136 
	149.996,-17.127 146.318,-18.196 144.877,-17.783 145.031,-17.438 143.609,-18.045 140.639,-17.519 139.082,-16.025 
	138.119,-15.948 138.449,-15.638 138.207,-15.165 137.719,-15.604 136.828,-15.722 137.811,-14.234 135.988,-15.485 
	135.209,-15.226 135.24,-14.89 134.086,-14.202 134.275,-14.06 132.99,-13.685 124.221,-14.271 123.658,-14.854 119.893,-14.907 
	119.299,-15.244 119.008,-15.216 118.023,-15.598 116.625,-15.572 115.027,-15.047 115.049,-14.688 115.547,-14.601 113.34,-10.161 
	113.777,-10.413 113.439,-9.874 114.232,-10.268 113.393,-9.162 114.15,-7.671 114.225,-8.1 114.646,-7.712 117.166,-7.036 
	117.441,-7.104 118.836,-6.837 118.986,-6.714 119.805,-6.677 122.242,-5.694 122.312,-5.176 123.012,-4.713 123.434,-5.184 
	123.859,-5.074 123.504,-4.816 123.816,-4.553 124.26,-4.67 124.381,-4.257 125.166,-3.777 125.672,-3.688 125.686,-3.535 
	126.125,-3.598 126.143,-3.463 126.582,-3.386 "/>
<polygon fill="#D1D1D1" points="110.34,13.899 109.475,13.636 108.654,13.806 108.625,14.28 109.117,14.531 110.787,14.673 
	111.01,14.462 110.57,14.218 "/>
<polygon fill="#D1D1D1" points="34.576,23.928 33.9,23.656 34.006,23.484 32.98,23.227 32.49,23.309 32.258,23.564 32.803,23.592 
	32.947,23.746 33.666,23.737 "/>
<polygon fill="#D1D1D1" points="11.045,38.829 10.904,39.213 12.371,39.523 12.689,39.056 12.09,38.314 "/>
<polygon fill="#D1D1D1" points="177.383,-5.675 177.285,-5.433 177.672,-5.245 178.125,-5.312 178.373,-5.223 178.719,-5.38 
	178.553,-5.667 "/>
<polygon fill="#D1D1D1" points="180,-4.529 180,-4.794 178.725,-5.043 178.596,-4.84 179.098,-4.729 "/>
<polygon fill="#D1D1D1" points="-179.916,-4.766 -180,-4.794 -180,-4.529 -179.793,-4.504 "/>
<polygon fill="#D1D1D1" points="-59.15,-27.498 -58.551,-27.164 -57.75,-27.539 -58.051,-27.835 -59.4,-28.09 -59.85,-27.793 
	-60.699,-28.175 -61.199,-27.793 -60,-27.289 "/>
<polygon fill="#D1D1D1" points="-6.15,40.159 -5.01,41.962 -3.006,41.967 -4.072,40.898 -1.961,41.027 -3.119,39.395 -2.086,39.334 
	-1.115,38.156 -0.432,38.012 0.469,36.659 1.682,36.494 1.561,35.947 1.051,35.698 1.449,35.265 0.551,34.829 -2.49,34.61 
	-2.955,34.771 -3.617,34.389 -4.543,34.481 -5.244,34.171 -5.777,34.333 -3.414,35.378 -4.984,35.519 -5.268,35.854 -4.223,36.118 
	-4.77,36.581 -4.58,37.151 -3.092,37.071 -2.945,37.583 -3.631,38.146 -4.846,38.306 -5.084,38.552 -4.719,38.962 -5.049,39.217 
	-5.588,38.78 "/>
<polygon fill="#D1D1D1" points="25.77,23.725 25.744,23.613 26.289,23.689 26.164,23.502 24.725,23.448 24.734,23.553 
	23.516,23.678 23.699,23.949 24.246,23.734 25.025,23.77 "/>
<polygon fill="#D1D1D1" points="127,2.337 127.25,2.164 126.873,1.99 126.184,2.087 125.988,2.311 "/>
<polygon fill="#D1D1D1" points="118.879,-0.367 119.127,-0.592 116.74,-0.764 117.084,-0.46 117.633,-0.455 117.9,-0.27 
	118.26,-0.41 "/>
<polygon fill="#D1D1D1" points="119.9,-0.938 120.775,-1.26 120.715,-1.403 120.295,-1.413 118.969,-1.042 "/>
<polygon fill="#D1D1D1" points="130.471,2.355 130.834,1.955 127.898,2.199 128.137,2.486 "/>
<polygon fill="#D1D1D1" points="128.596,4.775 128.635,4.105 128.119,4.157 127.969,3.839 128.379,3.562 128.1,3.501 127.398,4.499 
	127.934,5.105 128.004,4.82 "/>
<polygon fill="#D1D1D1" points="119.924,-0.646 119.922,-0.453 120.715,-0.344 121.342,-0.502 122.902,-0.269 122.756,-0.562 "/>
<polygon fill="#D1D1D1" points="120.887,4.654 124.074,4.45 125.066,4.828 125.24,4.713 124.438,4.194 120.182,4.095 120.041,3.699 
	120.936,3.235 123.342,3.649 123.26,3.408 122.822,3.485 121.51,2.977 122.453,2.307 122.271,2.127 123.172,1.523 123.162,1.179 
	122.627,1.024 122.236,1.209 122.721,1.639 121.738,1.436 121.488,1.58 121.619,1.783 120.898,2.09 120.973,2.599 120.305,2.439 
	120.43,1.081 119.797,1.004 119.367,1.158 119.498,2.145 119.078,2.148 118.77,2.508 119.324,3.264 "/>
<polygon fill="#D1D1D1" points="108.623,0.424 110.539,0.372 110.76,0.588 112.615,0.336 112.979,-0.006 115.705,-0.414 
	106.455,0.121 106.279,0.348 105.365,0.386 106.051,0.888 108.486,0.611 "/>
<polygon fill="#D1D1D1" points="103.838,4.025 103.438,3.6 104.369,3.404 104.889,2.749 105.621,2.703 106.109,2.371 105.818,0.91 
	104.711,0.899 95.293,6.837 97.486,6.714 100.641,5.066 101.656,5.059 103.076,4.264 "/>
<polygon fill="#D1D1D1" points="134.498,1.124 134.727,0.971 134.725,0.721 134.211,0.363 134.111,0.758 "/>
<polygon fill="#D1D1D1" points="109.068,4.672 109.662,5.019 110.396,4.839 111.168,4.938 111.369,5.379 112.996,5.592 
	116.725,7.595 117.129,7.597 117.645,7.331 117.689,7.104 119.182,6.799 119.111,6.593 118.439,6.567 118.617,6.312 117.883,6.134 
	117.314,5.661 118.049,5.166 117.875,4.926 118.996,4.442 117.812,4.381 117.521,3.551 116.561,3.194 116.148,1.874 116,2.061 
	114.865,1.824 114.469,2.145 113.256,2.342 112.068,2.154 111.703,2.406 110.225,2.438 110.07,3.139 109.572,3.284 108.951,4.188 
	"/>
<polygon fill="#D1D1D1" points="-9.977,35.71 -9.164,36.604 -9.688,37.492 -7.572,38.616 -6.734,38.653 -5.662,38.093 
	-6.197,37.479 -6.031,36.854 -6.789,36.083 -8.562,35.583 "/>
<polygon fill="#D1D1D1" points="-22.762,47.771 -21.779,48.301 -23.955,48.896 -22.184,49.137 -22.227,49.502 -24.326,49.795 
	-23.65,50.629 -22.135,50.823 -20.576,49.948 -19.057,50.648 -17.799,50.283 -16.168,50.977 -14.51,50.882 -14.74,50.046 
	-13.609,49.189 -18.656,47.225 -19.973,47.396 "/>
<polygon fill="#D1D1D1" points="8.16,27.443 8.711,27.408 9.211,27.623 9.811,27.133 9.67,26.234 9.215,26.276 8.807,26.052 
	8.43,26.23 8.389,27.049 "/>
<polygon fill="#D1D1D1" points="15.52,25.601 15.16,25.08 15.311,24.877 15.1,24.541 12.43,25.191 12.57,25.531 14.762,25.543 "/>
<polygon fill="#D1D1D1" points="139.428,25.59 140.307,27.612 141.369,27.74 140.254,23.587 137.217,23.248 135.793,22.529 
	135.121,22.771 135.078,23.242 130.986,22.793 131.998,22.333 131.332,21.283 130.686,21.025 130.201,21.264 130.447,21.816 
	129.814,21.997 129.406,22.424 132.617,23.775 135.678,23.836 136.723,24.988 137.393,24.677 138.857,25.333 "/>
<polygon fill="#D1D1D1" points="141.381,29.161 141.969,30.744 144.613,29.575 145.32,29.883 145.545,29.071 144.061,28.875 
	143.184,28.172 141.611,28.655 141.066,27.883 139.953,27.873 139.818,28.573 140.312,29.122 "/>
<polygon fill="#D1D1D1" points="133.016,22.056 132.365,22.232 132.371,22.529 132.926,22.903 133.492,22.83 133.902,23.096 
	134.639,22.959 134.768,22.744 134.203,22.364 133.795,22.564 133.281,22.42 "/>
<polygon fill="#D1D1D1" points="80.348,7.093 79.871,7.511 80.146,9.126 81.787,7.91 81.637,7.362 81.219,7.213 "/>
<polygon fill="#D1D1D1" points="44.465,-6.376 43.965,-5.261 44.447,-4.609 46.312,-4.373 48.006,-3.461 47.867,-3.23 
	48.295,-3.295 48.846,-2.923 48.863,-2.601 49.193,-2.361 50.477,-4.073 50.201,-4.492 49.861,-4.175 49.672,-4.335 49.775,-4.969 
	49.498,-5.095 47.096,-9.481 45.41,-9.862 44.039,-9.509 43.434,-7.435 43.895,-7.338 43.896,-7.151 "/>
<polygon fill="#D1D1D1" points="167.119,-7.896 166.74,-8.034 164.029,-6.748 164.461,-6.756 165.779,-7.292 "/>
<polygon fill="#D1D1D1" points="172.098,-19.506 172.797,-19.188 173.246,-19.766 173.961,-19.485 174.248,-20.071 172.711,-21.207 
	173.08,-21.555 172.307,-21.562 171.451,-21.836 170.617,-23.069 169.332,-23.622 168.41,-23.605 167.764,-23.355 166.678,-23.303 
	166.51,-23.027 171.947,-19.893 "/>
<polygon fill="#D1D1D1" points="177.439,-17.479 178.01,-17.229 178.518,-17.305 177.971,-18.285 177.205,-18.271 176.939,-18.475 
	177.031,-18.768 175.238,-20.014 175.068,-19.832 174.65,-19.73 175.227,-19.164 174.9,-18.787 173.824,-18.516 173.852,-18.271 
	174.574,-18.037 174.742,-17.524 172.637,-15.257 173.006,-15.208 174.328,-15.726 175.338,-16.984 175.357,-16.538 
	175.809,-16.716 175.957,-17.212 "/>
<polygon fill="#D1D1D1" points="123.119,10.061 123.1,9.838 122.002,9.452 121.883,10.225 "/>
<polygon fill="#D1D1D1" points="119.512,9.946 119.691,9.513 117.174,8.354 118.986,9.419 "/>
<polygon fill="#D1D1D1" points="120.322,11.067 121.18,11.048 121.527,10.854 121.262,10.392 120.834,10.659 "/>
<polygon fill="#D1D1D1" points="119.883,12.632 120.285,12.454 120.715,13.804 121.938,13.646 122.246,13.79 122.338,13.649 
	122.176,13.423 122.516,13.03 122.254,12.577 121.662,12.396 121.729,11.53 123.949,11.237 123.855,10.944 124.182,10.815 
	124.074,10.569 122.928,11.113 122.672,10.917 122.035,11.238 121.129,11.158 120.629,11.277 120.68,11.499 120.99,11.638 
	120.693,11.762 120.564,11.567 119.922,12.112 "/>
<polygon fill="#D1D1D1" points="123.842,8.288 124.6,8.433 124.766,8.669 125.471,8.683 125.412,9.092 126.223,8.841 126.197,7.254 
	125.83,7.789 125.363,7.521 125.684,7.136 125.396,6.89 124.219,7.194 123.939,7.575 124.242,7.825 123.609,8.073 123.297,7.855 
	122.824,7.876 122.086,7.581 121.92,7.735 122.312,8.18 123.488,8.527 "/>
<polygon fill="#D1D1D1" points="123.498,9.718 123.34,9.36 124.076,9.873 123.982,9.366 122.994,8.701 122.381,9.067 122.947,9.688 
	"/>
<polygon fill="#D1D1D1" points="125.783,9.773 125.012,9.915 125.277,9.409 124.803,9.29 124.76,9.663 124.461,9.69 124.303,10.013 
	124.893,9.971 124.879,10.173 124.268,10.58 125.227,10.568 125.502,10.369 "/>
<polygon fill="#D1D1D1" points="150.236,1.078 150.807,1.119 151.648,1.484 151.537,1.793 152.137,1.803 152.338,1.717 
	151.982,1.107 151.459,1.064 151.301,0.916 149.711,0.666 148.318,0.966 148.402,1.129 149.846,1.093 149.994,1.344 150.141,1.357 
	"/>
<polygon fill="#D1D1D1" points="150.662,2.539 150.939,2.665 153.02,1.892 153.141,1.619 152.826,1.479 151.953,2.162 "/>
<polygon fill="#D1D1D1" points="147.891,0.511 146.973,0.453 148.734,-0.803 149.307,-0.785 149.268,-1.019 150.039,-1.109 
	149.738,-1.209 150.803,-1.432 150.691,-1.586 150.027,-1.623 149.781,-1.485 147.912,-1.346 144.744,-0.023 143.287,-0.348 
	143.412,-0.738 142.629,-0.92 141.031,-0.809 140.145,-0.376 139.129,-0.27 138.883,-0.42 137.613,-0.436 138.039,-0.007 
	138.666,0.139 137.928,1.15 133.662,2.123 133.367,1.867 132.982,1.822 132.758,2.014 132.754,2.24 131.988,2.498 133.781,2.676 
	133.697,2.814 132.232,2.815 131.838,3.127 130.941,3.223 130.52,3.481 132.381,3.777 133.984,3.562 134.422,2.525 135.457,2.212 
	137.441,3.082 145.83,1.422 145.982,1.113 147.648,0.789 "/>
<polygon fill="#D1D1D1" points="154.514,1.284 154.652,1.335 156.02,0.549 155.881,0.402 155.6,0.35 "/>
<polygon fill="#D1D1D1" points="-180,57.177 -180,58.283 -179.871,58.354 -179.023,58.35 -177.576,57.88 -177.662,57.658 "/>
<polygon fill="#D1D1D1" points="-179.432,49.535 -180,49.006 -180,54.337 -174.928,51.878 -175.014,51.05 -174.34,50.727 
	-174.57,51.686 -171.857,51.484 -169.898,50.262 -170.891,49.707 -172.529,49.577 -172.555,48.373 -172.953,48.121 -173.891,48.157 
	-175.982,48.938 -176.205,49.475 -177.221,49.68 -178.359,49.518 -178.902,49.959 -178.686,50.436 -179.883,50.13 "/>
<polygon fill="#D1D1D1" points="142.061,62.398 143.482,61.688 143.604,61.208 140.035,61.396 139.863,61.494 140.812,62.225 "/>
<polygon fill="#D1D1D1" points="146.119,64.973 146.359,65.639 150.73,64.791 149.576,64 "/>
<polygon fill="#D1D1D1" points="180,58.283 180,57.177 178.904,57.098 178.725,57.604 "/>
<polygon fill="#D1D1D1" points="138.955,63.848 136.973,65.152 137.512,66.598 138.83,67.003 145.086,65.777 144.301,64.26 
	140.613,64.314 "/>
<path fill="#D1D1D1" d="M175.725,55.693l4.269-1.349v-5.329l-1.293-0.543l-1.296,0.088l2.074-2.396l-0.258-0.298l-1.863,0.243
	l-7.034-2.86l-1.429,0.728l-2.606-0.823l-0.455,0.387l-0.965-0.446l-1.336,0.143l-1.486-2.049l1.142-0.22l-0.135-1.392l-0.931-0.034
	l-0.429-0.776l0.416-0.393l-1.745-0.459l-0.351-1.01l-1.49-0.212l-0.301-0.87l-1.44-0.781l0.021,6.14l1.553,0.22l6.108,4.747
	l-1.215-0.098l-3.14-2.104l-0.817,1.331l-2.582-0.373l-2.502-1.781l0.826-0.631l-3.777-0.368l0.07,0.735l-1.556,0.155l-1.237-0.504
	l-6.349-0.126l-7.069-4.125l1.573-0.112l0.494-0.562l0.971-0.197l0.642,0.443l1.099-0.057l1.442-0.97l-8.438-8.059l-0.629,0.348
	l-1.342-0.521l-0.156-0.236l-0.379,0.043l-0.732-0.478l0.039-0.498l-2.174-0.771l-0.029-0.293l-0.117-0.074l2.076-1.608
	l-0.371-1.099l-2.604-0.438l-0.367,1.498l0.742,0.111l-0.688,0.561l-0.484,0.127l-0.121-0.125l-0.291-0.055l-0.037,0.124
	l-0.527,0.167l0.273,0.293l0.234,0.078l-0.09,0.122l0.254,0.361l-0.062,0.111l-1.059,0.256l-3.211-0.697l0.531,0.312l-0.209,0.264
	l0.793,0.459l-0.529,0.36l-2.615-1.156l-0.98-0.032l-0.51-0.312l0.527-0.449l0.816-0.109l0.031-0.296l0.791-0.19l1.121,0.47
	l1.535-0.274l0.162-0.343l-1.414-0.182l-1.955-1.121l1.076-0.35l1.666-2.115l-0.629-0.166l0.24-0.322l0.588-0.188l-0.406-0.959
	l-0.561-0.053l-6.971-3.414l-0.35,0.186l-3.021-0.647l-0.342-0.591l-0.554-0.032l-0.264,0.404l0.237,0.217l-1.342,0.18l-2.861-1.479
	l3.216-2.065l0.323-1.938l-4.043-1.627l-0.362,0.34l0.28,0.357l-1.58,0.379l-0.911,0.828l-1.755,0.235l0.148,0.42l-0.882-0.004
	L99.21,8.832l0.647-0.017l1.146-1.24l0.604-0.062l1.758-0.989l0.123-1.081l0.354-0.144l0.375-0.64l-0.709-0.034l-5.019,3.751
	l-0.164-0.309l-1.175,4.887l-1.797-0.661l-1.181,0.177l0.345,0.674l-0.992,1.149l0.121,0.2l-0.582,0.069L91.4,16.194l-0.919,0.021
	l0.09-0.231l-0.312-0.313l-0.426,0.113l-0.145-0.103l-0.67,0.111l-0.145-0.205l-1.912-0.109l0.057-0.422L82.18,13l-0.002-0.251
	l-1.867-0.357L79.844,9.42L79.33,9.393L78.875,8.99l0.305-0.174l-0.912-0.149L77.53,8.156L72.62,15.4l-1.455-0.335l-0.705,0.066
	l-1.307,0.68l0.48,0.203l-3.271,1.7l-8.977,0.183l-0.426,0.715l-0.479,0.104l-1.777-0.388L51.51,19.14l-1.404,1.363l-0.539-0.099
	l-0.637,0.2l-0.373-0.236l-0.594,0.029l0.209-0.266l-0.09-0.137l0.713-0.96l0.492-0.135l0.172-0.206l0.682-0.247l-0.037-0.435
	l0.695-0.688l0.203,0.725l0.273,0.062l0.303-0.183l-0.199-0.678l0.189-0.219l0.178,0.026l0.037-0.156l2.215,0.064l2.355,1.312
	l0.123-0.051l-0.088-0.802l1.006-0.602l1.326-0.179l0.721-0.514l0.359-0.072l-0.004-0.126l-1.318-1.054l-0.453,0.028l-0.207-0.132
	l-0.037-0.652l-0.096-0.068l-0.459,0.002l-0.625-0.205l-0.096-0.269l-0.23-0.116l-0.621,0.005l-0.393-0.138l0.006-0.222
	l-0.484-0.151l-0.553,0.051l-1.854-0.359l-0.217-0.427l-6.543-1.243l-0.219-0.143l-0.262-0.039l-0.154-0.136l-1.506-0.033
	l-0.879,1.386l0.201,0.026l-0.104,0.247l0.121,0.104l-5.668,4.99l0.055,0.13l-2.08,1.739l-0.498-0.004l0.291,0.86l-1.002-1.103
	l-1.498,1.312L32.31,20.26l3.373-3.416l-0.199-0.1l0.033-0.37l1.662-1.174l-0.219-0.103l6.348-4.604l-0.031-0.223l-0.57-0.127
	l1.402-0.688l6.992,0.841L38.789,0.583l0.641-0.19l0.031-0.136l-0.275-0.316l0.754-1.267l0.367-0.116l0.16-2.726l-5.689-2.399
	l0.598-1.316l0.18,0.027l-0.191-0.817l0.234-0.099l-0.148-0.237l-2.883-0.923l0.086-0.244l0.256-0.04l-0.713-1.492l-6.424-3.176
	l-6.162-0.553l-0.424,0.226l-0.338,0.012l-0.43,0.282l-0.049-0.088l-0.453,0.953l0.324,0.112l-6.516,8.741l1.9,2.841l-0.76,1.525
	l0.363,0.319l-1.01,1.192l0.094,0.104L8.789,3.39l0.696,1.107L9.297,4.576l0.49,0.999L9.396,5.922L8.939,6.01L8.736,6.244L8.48,6.32
	l0.012,0.146L5.89,6.198L4.316,7.252l-12.037-1l-5.238,1.804l-0.297,0.582l-1.332,0.694l-0.113,0.234l-1.621,0.611l0.006,0.082
	l-0.307,0.113l-0.1,0.762l-0.91,0.611l0.439,0.102l0.906,2.834l-0.785,0.507l0.09,0.495l0.711,0.448l-0.064,0.192l3.709,2.905
	l0.93,0.065l2.123,1.065l-0.25,0.755l1.158,1.271l1.746,0.546l0.982,1.052l0.734-0.003l0.604-0.272l11.923,1.159l0.406-0.152
	l1.773,0.304l0.701-0.078l-0.029-0.33l0.848,0.239l0.07-0.125l-0.5-0.318l-0.006-0.3l0.348-0.16l-0.133-0.553l-0.658-0.318
	l0.189-0.344l0.518-0.011l0.252-0.299l1.555-0.312l0.42,0.054l2.162-0.381l0.467-0.545l3.373-0.676l0.967,0.437l-0.232,0.47
	l1.033,0.589l2.041-0.043l0.342-0.275l1.684-0.18l0.244-0.203l3.75-0.427l1.182,0.367l1.592-0.025l0.271-0.304l0.232,0.199
	l1.582-0.179l0.783,0.354l-0.068,0.034l0.609,0.911l0.029,0.008l1.023,1.729l-0.367,0.293l0.377,0.243l-1.445,0.095L34.02,24.28
	l-1.52-0.073l-0.809,0.349l-1.076,0.021l-0.232-0.27l-0.689-0.076l-0.969,0.345l-1.092-0.013l-1.322,1.021l0.486,0.521l-0.635,0.321
	l1.111,0.65l1.539,0.026l0.42,0.525l5.926,0.573l3.183-0.76l3.205,0.407l-0.1,0.782l-4.779,1.885l0.73,0.118l0.828,0.626
	l-0.559,0.301l1.475,0.312l-0.027,0.168l-4.158-0.754l0.057-0.468l0.492-0.181l1.02,0.044l-0.195-0.264l-2.451-0.553l-0.557,0.147
	l0.221,0.347l-1.092,0.217l0.176,0.143l0.957,0.249l-0.289,0.171l-1.555,0.191l-0.068,0.283l-0.928-0.094l-1.145-0.97l0.023-0.189
	l-0.486-0.159l-0.305,0.068l-1.162-1.688l0.441-0.673l0.873-0.226l-0.182-0.17l-1.188-0.039l-1.262-0.581l-0.316,0.319l0.014,0.142
	l-2.342-0.095L24.4,26.87l-1.065-0.114l-0.529,0.354l-0.188-0.15l0.723-0.724l-0.377-0.146l1.053-0.502l0.016-0.375l-0.924,0.177
	l0.295-0.336l-0.635-0.07l0.379-0.575l-0.664-0.008l-0.82,0.283l-1.52,1.848l-0.17,0.047l-0.021,0.149L19.4,26.957l0.134,1.017
	l-4.363,1.802l0.199,0.055l-0.455,0.308l-0.02,0.25l-0.643,0.115l-0.307-0.317l-0.295,0.247l0.021,0.258l0.258,0.08l-0.795,0.106
	l-0.812-0.264l-0.066-0.576l2.881-1.898l0.783,0.005l0.244-0.155l-0.279-0.139l2.59-0.947l-0.188-0.244l-0.555,0.318l-0.869,0.112
	l-0.42-0.441l0.723-0.251l-0.119-0.353l-0.418-0.039l-0.533-0.571l-0.418-0.052l0.428,0.704l-0.697,0.733l-0.416,0.084l-0.295,0.297
	l-0.643,0.125l-0.434,0.277l-0.74,0.046l-3.998,2.217L6.524,28.97l-3.432-0.038l-0.061-0.839l-0.947-0.464l-1.279-0.146l-1.09-1.165
	l0.391-0.383l-0.58-0.299l-0.217-0.431l-0.754-0.131l-0.707-0.504l-2.225,0.003l-1.01-0.474l-0.488,0.054l-0.654,0.593l-0.934,0.103
	l-0.402-0.17l-0.527,0.092l-0.516-0.072l0.059,0.921l-0.447,0.062L-9.4,28.9l1.414,0.518l6.078-0.233l0.707,1.903L-4.5,32.573
	l-0.102,0.572l2.977-0.031l-0.316,0.904l0.943-0.346l2.33,0.63l0.299,0.674l1.676,0.332l1.391,1.487l1.369,0.365l0.83-0.024
	l0.195,0.188l0.838,0.048l0.183-0.197l0.68,0.437l-0.711,2.311l0.455,0.544l0.879,0.06l1.156,0.542l-0.209-1.079l0.541-0.143
	l-0.244-0.354l-0.297,0.102l-0.721-0.67l0.291-0.796l1.01-0.209l-0.012-0.316l1.58,0.412l1.602-0.636l3.502,0.979l0.998-0.153
	l0.076-0.219l0.965-0.012l0.229,0.396l1.379,0.296l0.312,2.092l0.943,0.332l0.793-0.723l0.803,0.018l0.309,1.328l-0.367-0.126
	l-0.637,0.354l-0.086,0.58l4.643,0.296l1.135,0.572l-1.047,0.5l-5.199-0.69l-1.549,0.922l-0.262,2.076l4.34,2.969l-0.105,0.526
	l-1.391,0.604l-1.719-0.359l-0.971-0.873l0.156-0.75l-4.25-3.521l1.668-1.344l-0.92-1.161l-1.039-0.236l-0.947-2.536l-1.215,0.092
	l-0.566-0.738l-1.158-0.042l-2.586,3.987l-1.975-1.168l-1.332-0.232L5.658,41.92l-0.674,3.566l16.387,10.788l1.645-0.082
	l1.523,1.305l3.619,0.25l3.129-1.163l-1.289-0.415l1.098-0.952l1.031,0.523l8.158-2.866l0.834-1.547l-2.742-1.034l-4.465,0.992
	l-0.732-0.168l1.629-0.951l0.129-1.849l2.068-0.676l0.129,0.579l-0.602,0.521l0.637,0.467l2.416-0.765l0.842,0.298l-0.672,0.909
	l2.33,1.258l0.924-0.076l0.934-0.454l0.582,0.897l-0.832,0.799l0.488,0.82l-0.736,0.875l2.799-0.455l0.57-0.779l-1.266-0.17
	l0.006-0.752l0.787-0.454l1.545,0.286l0.246,0.859l5.576,1.875l0.756-0.068l-0.984-0.865l1.24-0.146l0.714,0.482l1.873,0.039
	l1.486,0.594l1.139-0.859l1.137,0.947l-1.047,0.854l0.52,0.497l7.961-2.562l0.67,0.74L68.156,54.6l-0.027,0.312l-1.207,0.146
	l3.01,5.838l2.648-0.47l-0.738-2.321l0.621-0.52l0.096-3.169l1.102-0.882l-2.387-2.834l1.143-0.192l0.398,0.474l1.1,0.338
	l1.133,1.312l-0.584,0.793l0.467,0.947l-1.094,0.12l0.557,2.365l-1.297,1.312l1.789,1.125l-0.23,1.231l0.498,0.041l0.131-2.582
	l1.07-0.297L75.9,58.876l1.673,0.664l2.074,0.091l1.85-0.965l-0.988,3.336l6.311,0.54l-0.812,1.002l1.156,1.31l1.15,0.057
	l1.945,1.025l2.64,0.28l0.334,0.589l2.627,0.2l0.815-0.483l2.244,1.16l1.836-0.037l0.274,0.979l3.316,1.98l1.715-0.783l-1.36-0.584
	l2.268-0.354l0.269-1.124l0.914,0.551l2.925-0.031l3.059-1.897l-0.25-1.09l-4.483-2.279l2.72-0.741l0.899,0.354l0.51-1.192
	l0.438,0.479l4.808-0.015l0.244-0.854l4.183-0.269l0.057,1.395l3.72-0.312l2.076-2.082l-0.595-0.715l2.83-1.951l0.965,1.711
	l1.604-0.744l1.703,0.441l1.938-0.509l0.734,0.462l1.637-0.229l-0.723,1.562l1.318,0.759l9.033-1.129l3.471-2.238l6.027,0.039
	l0.834-0.65l-0.121-1.121l1.23-0.426l6.895,0.217l1.742-1.303l1.24,0.462l-0.811,0.946l0.445,0.672L175.725,55.693L175.725,55.693z
	 M53.826,24.767l0.056,1.315l-0.779,0.228l0.258,0.465l-0.664,0.041l0.221,0.576l0.941-0.169l0.879,0.222l-1.016,0.818l-0.805-0.181
	l-0.102-0.512l-0.369,0.624l0.246,0.294l-0.191,0.247l-1.158,0.242l-0.451,0.647l-0.553,0.184l-0.033,0.238l0.975-0.069l0.037,0.538
	l1.723,0.011l0.002,1.198l-1.85,0.15l-2.09-0.494l-0.457-0.447l-0.971-0.123l-0.992-0.764l0.908-0.69l-0.1-0.482l2.127-1.691
	l0.467-0.031l0.307-0.186L49.57,26.91l-0.715-0.92l0.344-0.818l1.643-0.465L53.826,24.767L53.826,24.767z"/>
<polygon fill="#D1D1D1" points="141.684,36.982 142.605,37.387 142.211,37.798 142.654,37.924 144.652,33.38 143.174,33.644 
	142.559,32.503 143.531,31.714 143.506,31.185 142.746,31.64 142.092,31.055 141.594,35.808 "/>
<polygon fill="#D1D1D1" points="52.443,60.428 54.428,61.969 53.51,62.195 55.902,63.878 55.633,64.785 68.158,68.805 
	68.854,67.904 68.18,67.215 61.582,65.15 55.623,58.324 57.535,56.999 56.945,56.861 53.678,57.066 53.412,57.777 51.602,58.216 
	51.455,59.116 52.479,59.48 "/>
<polygon fill="#D1D1D1" points="92.545,77.279 91.182,77.889 95.939,80.857 99.939,73.652 97.76,73.316 93.312,75.167 "/>
<polygon fill="#D1D1D1" points="99.439,71.158 101.264,74.624 102.088,74.939 105.371,73.204 105.074,72.137 "/>
<polygon fill="#D1D1D1" points="47.072,78.574 44.846,78.671 48.318,79.298 48.523,78.432 50.039,79.74 51.523,79.023 
	51.137,78.535 48.895,77.883 48.756,77.376 47.586,76.875 46.504,77.598 "/>
<polygon fill="#D1D1D1" points="161.318,-1.385 162.119,-1.532 162.398,-1.715 161.699,-1.711 "/>
<polygon fill="#D1D1D1" points="161.68,-1.064 161.527,-1.162 160.578,-0.389 160.922,-0.389 "/>
<polygon fill="#D1D1D1" points="159.918,-0.503 158.211,0.086 158.357,0.14 159.641,-0.229 "/>
<polygon fill="#D1D1D1" points="156.492,0.431 156.541,0.519 157.537,0.125 157.34,0.095 "/>
<polygon fill="#D1D1D1" points="160.363,-0.959 160.852,-1.209 159.641,-1.085 159.703,-0.875 "/>
<polygon fill="#D1D1D1" points="126.955,-0.363 127.338,-0.429 123.58,-1.467 123.461,-1.403 123.98,-0.9 124.969,-0.689 
	125.086,-0.566 126.645,-0.43 "/>
<polygon fill="#D1D1D1" points="120.744,15.733 120.105,16.63 121.494,17.628 121.949,17.457 121.178,16.196 "/>
<polygon fill="#D1D1D1" points="-77.891,17.557 -77.533,16.747 -77.779,16.718 -78.408,17.214 -78.191,17.58 "/>
<polygon fill="#D1D1D1" points="-77.355,18.041 -77.34,18.345 -77.787,18.576 -77.789,18.644 -77,18.381 -77.174,17.967 "/>
<polygon fill="#D1D1D1" points="-77.85,18.526 -77.82,18.375 -78.908,18.281 -78.98,18.498 -78.51,18.544 "/>
<polygon fill="#D1D1D1" points="-100.883,64.736 -100.863,65.939 -102.502,65.779 -102.564,67.441 -101.488,67.373 -99.984,68.134 
	-98.576,68.004 -98.5,68.301 -98.158,64.621 -99.809,64.414 "/>
<polygon fill="#D1D1D1" points="-96.82,64.475 -96.287,65.393 -94.852,65.954 -93.613,64.58 -94.156,63.811 "/>
<polygon fill="#D1D1D1" points="-105.379,60.4 -106.939,61.659 -106.6,61.918 -105.26,61.992 -104.498,61.586 "/>
<polygon fill="#D1D1D1" points="-95.408,59.193 -96.018,61.618 -94.504,62.924 -90.51,62.396 -92.004,60.768 -93.195,60.423 
	-94.268,59.132 "/>
<polygon fill="#D1D1D1" points="-96.17,70.26 -96.436,70.943 -94.422,70.908 -93.721,70.451 -93.84,70.174 "/>
<polygon fill="#D1D1D1" points="-101.09,55.253 -102.73,55.133 -102.094,54.564 -102.43,54.032 -105.959,54.652 -113.312,53.721 
	-113.854,54.4 -115.219,54.801 -116.107,54.636 -117.34,55.818 -112.416,56.443 -117.904,56.717 -118.432,57.3 -116.113,57.943 
	-119.4,58.354 -115.189,61.395 -114.168,61.045 -114.664,60.213 -112.439,60.747 -111.051,59.861 -109.92,60.757 -108.188,58.507 
	-107.686,59.201 -108.396,60.986 -107.516,61.251 -105.402,60.247 -104.465,57.434 -100.98,55.919 "/>
<polygon fill="#D1D1D1" points="-91.586,83.15 -86.969,84.614 -85.5,86.098 -84.26,85.885 -83.18,84.771 -82.42,86.958 
	-76.25,88.298 -75.719,87.828 -72.832,88.568 -61.85,86.002 -61.895,84.936 -67.658,81.73 -65.48,81.749 -71.18,76.249 
	-73.242,75.764 -73.881,75.178 -76.906,74.875 -75.529,74.523 -76.219,74.029 -75.393,72.706 -79.76,69.434 -79.619,68.904 
	-77.91,68.994 -77.889,68.434 -80.561,67.093 -89.49,67.743 -89.615,68.832 -87.768,69.359 -88.26,71.105 -87.648,71.281 
	-84.977,70.22 -86.34,71.812 -87.963,72.305 -87.152,73.324 -85.379,73.97 -86.932,77.609 -84.197,77.479 -83.408,77.146 
	-81.848,78.273 -87.6,78.438 -90.199,80.891 "/>
<polygon fill="#D1D1D1" points="-80.834,62.09 -80.352,62.215 -78.064,62.016 -76.34,61.011 -76.252,60.52 -79.486,60.37 
	-80.875,61.428 "/>
<polygon fill="#D1D1D1" points="-80.1,45.207 -80.361,45.537 -79.93,45.949 -79.52,45.926 -79.266,45.695 -79.656,45.113 "/>
<polygon fill="#D1D1D1" points="-75.865,51.8 -76.986,51.732 -76.812,53.173 -75.895,53.368 -75.113,52.979 -75.217,52.2 "/>
<polygon fill="#D1D1D1" points="-80.99,47.125 -82.547,47.407 -83.109,47.939 -85.523,46.709 -85.867,47.391 -87.221,47.277 
	-86.352,47.861 -85.885,49.957 -85.16,49.854 -84.977,49.302 -84.465,49.494 -81.641,48.365 -81.553,47.795 -80.816,47.887 
	-80.104,47.494 "/>
<polygon fill="#D1D1D1" points="-68.014,50.631 -68.143,49.895 -65.32,48.277 -65.014,46.275 -68.783,47.518 -66.164,45.441 
	-72.234,47.109 -71.887,47.439 -74.834,48.639 -74.818,48.285 -77.711,48.094 -78.555,48.508 -77.896,49.416 -73.961,49.6 
	-74.295,50.051 -72.65,51.982 -73.311,53.062 -76.867,54.236 -76.229,54.605 -77.287,55.531 -78.17,55.617 -78.957,56.137 
	-79.492,55.686 -88.682,56.516 -89.514,57.064 -88.467,57.797 -89.887,57.805 -88.406,61.803 -85.826,62.297 -86.562,61.109 
	-85.773,60.006 -84.85,61.439 -82.314,62.198 -80.75,59.195 -77.822,60.383 -74.229,58.7 -74.1,57.979 -72.242,58.352 
	-71.199,57.316 -68.785,56.691 -66.969,54.662 -68.805,53.984 -63.426,51.505 -61.852,51.417 -63.918,49.03 -66.721,50.794 "/>
<polygon fill="#D1D1D1" points="-54.178,31.69 -53.963,32.319 -54.24,32.419 -55.4,31.751 -55.996,31.776 -55.289,32.138 
	-59.266,32.303 -59.42,32.532 -58.797,32.808 -59.23,33.021 -55.871,35.552 -55.406,35.515 -56.795,34.05 -56.143,34.325 
	-55.473,34.151 -55.822,33.868 -54.936,33.648 -54.475,33.845 -53.477,33.598 -53.785,33.017 -53.086,33.151 -52.648,32.25 
	-53.068,31.575 -53.521,31.547 "/>
<polygon fill="#D1D1D1" points="-95.648,54.548 -96.27,54.038 -97.617,54.479 -98.432,54.318 -99.797,54.979 -98.219,56.102 "/>
<polygon fill="#D1D1D1" points="-98.053,60.811 -96.539,60.052 -96.721,58.521 -98.359,57.886 -99.322,58.021 -102.5,59.964 
	-102.48,60.523 -100.438,60.307 -101.539,61.477 -100.355,62.372 -99.162,61.98 -97.381,62.215 -97.119,61.678 "/>
<polygon fill="#D1D1D1" points="-96.711,77.322 -95.322,79.702 -94.299,79.936 -94.736,80.707 -92.408,80.882 -91.133,79.102 
	-87.811,77.82 -85.814,74.913 -89.035,72.087 -92.877,72.23 -93.949,73.305 -93.145,75.036 -94.973,75.014 "/>
<polygon fill="#D1D1D1" points="-83.25,46.551 -81.877,46.539 -81.898,46.318 -83.068,45.695 -83.773,45.723 -83.992,46.025 "/>
<polygon fill="#D1D1D1" points="-92.422,64.295 -93.893,67.402 -95.963,67.674 -97.121,68.371 -96.744,69.32 -94.684,69.172 
	-93.572,68.43 -91.605,68.434 -90.74,67.691 -90.969,66.867 -89.188,65.876 -81.129,66.096 -79.834,64.466 -81.949,63.516 
	-88.15,63.419 "/>
<polygon fill="#D1D1D1" points="-61.807,33.482 -62.295,33.468 -64.52,34.099 -64.174,34.168 -61.836,33.629 "/>
<polygon fill="#D1D1D1" points="-123.619,57.995 -125.928,58.87 -123.939,62.066 -124.918,63.227 -117.555,63.021 -115.51,61.688 
	-123.092,57.288 "/>
<polygon fill="#D1D1D1" points="-62.012,31.414 -62.504,31.104 -62.875,31.056 -64.143,31.376 -64.393,31.63 -64.014,31.866 
	-63.664,31.495 "/>
<polygon fill="#D1D1D1" points="-98.633,73.63 -97.338,73.521 -95.559,72.426 -95.828,71.5 -97.311,70.984 -98.123,71.564 "/>
<polygon fill="#D1D1D1" points="-121.5,66.491 -122.854,66.959 -119.104,70.156 -116.197,70.479 -117.105,67.871 -118.039,67.764 
	-119.898,66.82 "/>
<polygon fill="#D1D1D1" points="-131.748,37.704 -132.049,36.706 -131.178,36.015 -131.576,36.017 -133.238,37.465 -132.711,37.633 
	"/>
<polygon fill="#D1D1D1" points="-115.404,67.758 -110.814,65.748 -109.066,65.59 -110.496,67.648 -109.58,68.469 -108.549,68.206 
	-107.818,66.375 -106.928,66.732 -105.881,66.641 -106.314,64.631 -113.742,63.422 -113.869,64.062 -111.793,64.949 
	-116.312,64.708 -117.711,65.072 "/>
<polygon fill="#D1D1D1" points="-105.42,73.755 -105.492,74.812 -100.824,73.438 -99.672,71.125 -105.176,72.326 -104.211,73.107 
	"/>
<polygon fill="#D1D1D1" points="-110.881,72.396 -112.543,72.398 -112.525,72.771 -111.498,73.568 -109.662,72.906 "/>
<polygon fill="#D1D1D1" points="-112.051,69.908 -113.533,70.691 -112.725,71.484 -111.264,71.743 -109.854,71.348 -110.186,70.605 
	"/>
<polygon fill="#D1D1D1" points="-68.148,-31.116 -74.662,-28.638 -71.107,-29.722 -69.346,-28.362 -68.635,-28.464 -67.75,-29.521 
	-65.051,-30.282 -65.5,-30.737 -66.449,-30.783 -66.961,-30.461 -67.289,-30.829 "/>
<polygon fill="#D1D1D1" points="-77.756,14.552 -77.086,14.86 -78.137,15.043 -78.719,15.523 -82.17,15.968 -81.795,16.108 
	-82.775,16.138 -83.494,15.845 -83.908,15.837 -84.053,15.698 -84.975,15.69 -82.268,16.421 -75.598,15.197 -75.67,15.04 
	-74.178,14.789 -74.297,14.659 -74.963,14.589 "/>
<polygon fill="#D1D1D1" points="8.775,27.883 8.545,28.356 9.391,28.891 9.229,27.74 "/>
<polygon fill="#D1D1D1" points="-62.65,82.695 -54.135,84.305 -53.043,83.13 -50.391,85.239 -44.521,82.299 -46.9,84.305 
	-46.764,85.999 -43.406,88.533 -39.896,88.334 -38.621,90 -27.102,89.864 -20.846,86.402 -22.691,84.855 -31.898,84.307 
	-31.396,83.627 -27.857,84.044 -24.844,82.757 -22.904,83.896 -22.072,82.564 -23.17,80.523 -15.768,83.22 -12.77,82.509 
	-12.209,80.999 -16.85,77.915 -20.047,77.381 -17.73,77.234 -18.473,68.91 -20.035,68.814 -21.68,68.092 -19.834,66.918 
	-19.6,65.125 -20.668,64.938 -19.371,63.232 -21.594,63.094 -20.434,62.322 -20.762,61.667 -23.566,61.38 -22.301,59.402 
	-24.277,60.116 -24.793,59.652 -23.443,59.227 -21.754,56.911 -23.535,56.607 -25.543,58.145 -25.201,57.051 -26.361,56.229 
	-22.35,56.079 -39.812,49.604 -43.379,43.467 -44.787,43.402 -46.264,44.268 -48.264,44.271 -53.66,50.419 -53.301,51.384 
	-53.969,51.854 -52.98,53.468 -51.477,53.999 -50.871,55.771 -53.455,54.807 -54.684,55.291 -54.359,57.16 -51.391,56.764 
	-54.004,58.335 -55,58.104 -55.834,58.514 -54.717,60.098 -61.268,66.928 -68.504,66.839 -71.402,68.963 -66.764,69.828 
	-73.297,71.467 -73.158,72.463 -65.711,75.076 -65.322,76.126 -68.021,77.198 -62.234,81.102 "/>
<polygon fill="#D1D1D1" points="-73.924,13.543 -74.459,13.715 -74.369,13.893 -72.695,13.771 -72.336,13.894 -72.793,14.133 
	-72.783,14.345 -73.414,14.431 -73.189,14.584 -71.713,14.472 -71.586,14.567 -69.949,14.438 -69.77,14.239 -69.223,14.25 
	-69.256,14.085 -68.809,14.065 -68.318,13.863 -68.689,13.64 -69.951,13.762 -70.133,13.661 -70.518,13.628 -70.67,13.761 
	-71,13.682 -71.4,13.306 -71.656,13.394 -71.707,13.552 -73.453,13.646 "/>
<polygon fill="#D1D1D1" points="-76.365,13.615 -76.199,13.464 -77.205,13.362 -78.338,13.65 -78.219,13.776 -76.896,13.747 "/>
<polygon fill="#D1D1D1" points="-65.771,13.761 -65.592,13.651 -65.846,13.513 -67.184,13.497 -67.242,13.732 -67.1,13.812 "/>
<polygon fill="#D1D1D1" points="-61.949,9.267 -61.658,9.413 -61.68,9.622 -60.895,9.673 -60.936,9.276 -61.77,9.22 "/>
<polygon fill="#D1D1D1" points="-159.031,16.041 -158.975,15.661 -159.418,15.453 -160.307,15.724 -159.691,16.075 "/>
<polygon fill="#D1D1D1" points="-158.355,15.188 -158.822,15.539 -157.984,15.815 -157.404,15.506 -156.301,15.452 -156.354,15.351 
	-155.496,15.114 -155.699,14.95 -154.402,14.381 -155.609,13.787 -156.312,14.011 -156.463,14.466 -156.258,14.669 -156.309,14.749 
	-156.281,14.773 -156.559,14.74 -157.035,15.011 -157.045,15.047 -157.924,15.073 -157.83,15.158 "/>
<polygon fill="#D1D1D1" points="-170.434,47.668 -168.23,47.115 -168.473,46.742 -169.531,46.402 -170.805,46.885 -171.656,46.82 
	-172.16,47.035 -172.045,47.902 -171.062,47.546 "/>
<polygon fill="#D1D1D1" points="-163.254,51.229 -163.387,50.587 -162.256,50.613 -167.205,53.393 -166.453,54.4 -164.588,54.45 
	-159.115,57.473 -158.24,57.37 -156.67,58.248 -154.809,57.828 -154.287,57.311 -154.062,57.467 -151.822,57.34 -151.889,56.939 
	-150.732,56.74 -149.695,56.898 -144.896,56.068 -143.553,56.318 -140.627,55.573 -140.627,55.375 -136.504,54.241 -134.414,55.316 
	-132.928,55.135 -129.795,56.18 -129.107,55.546 -128.359,55.9 -128.137,56.628 -127.447,56.462 -125.758,55.1 -124.424,56.124 
	-124.289,54.979 -123.061,55.223 -122.684,55.661 -113.898,53.525 -115.305,52.83 -109.945,52.938 -108.881,52.115 -107.793,52.809 
	-108.812,53.402 -108.168,53.891 -106.148,54.102 -104.338,52.991 -103.221,53.104 -101.453,52.479 -98.443,52.663 -98.559,53.534 
	-97.67,53.782 -96.119,53.301 -96.127,51.995 -95.488,53.093 -94.686,53.055 -94.232,54.49 -96.471,56.018 -95.209,58.956 
	-93.891,58.688 -91.52,56.175 -92.406,55.427 -90.547,55.123 -90.551,53.634 -89.215,54.77 -88.02,53.834 -88.318,52.789 
	-87.35,51.868 -85.521,55.702 -82.621,55.364 -81.279,54.626 -81.965,53.15 -81.26,52.409 -81.387,51.749 -84.734,50.623 
	-85.768,51.018 -88.482,47.938 -89.914,47.857 -90.703,47.357 -90.77,46.604 -91.932,46.46 -94.684,42.283 -93.217,42.115 
	-92.297,40.448 -90.896,40.639 -82.271,38.632 -82.125,36.96 -79.912,35.196 -79.143,35.468 -78.602,36.341 -79.828,38.195 
	-77.096,39.267 -76.621,40.559 -78.516,42.139 -77.338,43.21 -78.107,45.875 -77.41,46.137 -74.668,45.721 -73.84,46.016 
	-71.373,44.572 -69.59,44.49 -69.287,42.293 -68.375,42.135 -67.648,41.545 -64.584,43.717 -61.396,40.334 -61.799,39.737 
	-57.334,38.157 -56.936,37.402 -56.158,37.285 -55.756,36.954 -55.684,35.986 -60.031,34.4 -66.398,34.39 -71.104,31.702 
	-70.256,31.827 -69.268,32.488 -69.24,32.472 -65.057,33.585 -64.17,33.194 -65.115,32.666 -64.471,31.259 -63.174,30.884 
	-61.52,30.993 -60.518,31.845 -60.447,31.292 -59.803,31.021 -65.363,29.274 -66.123,29.327 -66.16,29.942 -64.426,30.551 
	-66.775,30.466 -66.527,30.118 -69.879,29.222 -70.459,28.738 -70.459,28.685 -69.494,28.182 -69.629,27.814 -69.641,27.814 
	-69.656,27.775 -71.641,27.539 -71.201,27.344 -73.615,27.035 -75.648,24.82 -75.355,23.801 -80.996,21.205 -80.096,17.439 
	-80.646,17.306 -81.453,17.42 -83.229,19.135 -83.029,19.52 -84.09,20.248 -85.076,19.98 -86.453,20.451 -89.078,20.41 
	-89.053,20.387 -89.066,20.166 -88.691,19.956 -89.357,19.681 -89.76,19.775 -90.066,19.684 -91.016,19.707 -91.727,20.01 
	-93.801,20.045 -96.842,18.999 -96.584,17.799 -97.289,17.767 -97.703,17.04 -95.9,13.981 -94.84,13.836 -94.426,13.606 
	-90.771,14.233 -90.279,15.188 -87.053,15.492 -86.811,15.374 -87.621,14.435 -87.436,14.338 -87.838,13.669 -88.09,13.811 
	-88.301,13.802 -88.297,13.721 -88.105,13.718 -88.285,13.331 -88.197,13.247 -88.303,13.052 -88.24,12.999 -88.551,12.579 
	-88.732,12.562 -88.93,12.374 -88.604,12.275 -88.518,12.356 -88.121,12.266 -87.9,12.361 -87.615,12.369 -87.523,12.325 
	-83.146,11.892 -83.232,11.839 -83.182,11.521 -83.412,11.338 -83.473,10.507 -83.627,10.454 -83.65,10.085 -83.855,9.948 
	-83.809,9.805 -82.188,8.8 -82.207,8.688 -81.809,8.663 -81.715,8.706 -81.439,8.576 -79.572,9.013 -79.021,8.981 -79.059,8.93 
	-76.836,8.498 -75.674,8.923 -75.48,9.547 -74.906,9.794 -74.275,9.804 -74.197,9.915 -73.414,9.87 -71.756,10.517 -71.4,10.483 
	-71.137,10.343 -71.359,10.036 -71.945,9.975 -71.619,9.733 -71.633,9.456 -72.074,9.146 -71.695,8.729 -71.266,8.762 
	-71.039,9.145 -71.35,9.331 -71.4,9.733 -70.156,9.949 -70.295,10.2 -69.943,10.369 -69.584,9.994 -68.883,9.985 -68.232,9.688 
	-68.195,9.513 -64.891,9.26 -64.328,9.425 -64.318,9.559 -61.881,9.599 -62.729,9.442 -62.389,9.191 -60.83,8.892 -60.672,8.468 
	-60.15,8.479 -58.482,7.818 -58.455,7.547 -58.078,7.534 -57.146,7.095 -55.949,6.99 -55.842,7.085 -51.656,6.144 -51.316,6.168 
	-50.508,4.963 -49.973,4.877 -49.947,4.518 -50.699,4.088 -50.389,3.93 -48.621,3.848 -48.584,3.324 -47.824,3.667 -44.906,3.16 
	-44.418,2.854 -44.58,2.564 -43.42,2.727 -35.236,1.113 -35.129,-0.745 -38.424,-2.895 -38.674,-2.906 -40.945,-7.771 
	-41.754,-8.017 -41.988,-8.355 -48.496,-10.021 -48.889,-11.665 -54.936,-15.526 -55.674,-15.399 -56.215,-15.467 -57.139,-15.194 
	-57.818,-15.215 -58.428,-14.866 -58.494,-15.195 -57.225,-15.74 -57.361,-16.183 -56.736,-16.464 -57.75,-17.627 -62.336,-18.057 
	-62.146,-19.312 -63.77,-19.651 -64.732,-19.399 -65.117,-19.58 -64.979,-20.273 -64.303,-20.486 -63.756,-20.264 -63.459,-20.63 
	-65.182,-21.296 -65.564,-22.419 -66.51,-22.422 -67.293,-22.802 -67.58,-23.365 -66.596,-23.922 -65.641,-24.077 -69.139,-26.859 
	-68.15,-28.219 -69.461,-28.169 -70.844,-28.69 -71.008,-29.508 -71.43,-29.528 -74.945,-28.143 -75.607,-25.197 -74.127,-23.85 
	-75.645,-23.627 -74.352,-21.735 -73.24,-21.992 -72.717,-20.504 -73.389,-20.315 -73.701,-21.203 -74.33,-21.102 -73.588,-16.951 
	-73.166,-16.929 -70.371,-5.776 -71.375,-5.46 -71.461,-5.234 -76.424,-3.316 -76.26,-3.162 -81.25,0.761 -80.926,0.995 
	-81.41,1.496 -79.77,2.583 -79.986,2.811 -80.369,2.568 -80.967,2.797 -80.766,2.945 -80.934,3.418 -80.582,3.498 -80.02,4.159 
	-80.09,4.372 -78.855,4.691 -78.99,4.854 -78.617,4.893 -78.662,5.154 -78.428,5.344 -77.932,5.379 -77.129,5.983 -77.496,6.107 
	-77.307,6.411 -77.531,6.891 -77.318,7.028 -78.428,8.188 -78.182,8.329 -78.436,8.366 -78.621,8.54 -79.119,8.688 -79.557,8.654 
	-79.76,8.47 -80.383,8.318 -80.48,8.209 -80.004,7.923 -80.887,7.751 -81.059,8.065 -81.189,7.976 -81.52,8.007 -81.721,8.22 
	-82.818,8.315 -82.85,8.2 -83.711,8.508 -83.596,8.6 -83.633,8.717 -84.646,9.015 -84.713,9.17 -84.977,9.265 -84.91,9.11 
	-85.111,8.983 -85.34,9.131 -85.66,9.183 -85.797,9.29 -85.658,9.619 -85.941,9.694 -85.713,9.797 -87.67,10.769 -87.557,10.852 
	-87.393,10.771 -87.316,10.81 -87.49,10.977 -87.795,11.021 -87.904,10.896 -93.875,12.401 -96.557,12.247 -105.73,14.872 
	-105.396,14.927 -105.5,15.085 -105.271,15.23 -105.266,15.425 -109.443,17.936 -109.291,18.294 -109.801,18.43 -110.641,19.125 
	-111.178,19.174 -113.871,21.354 -114.205,21.328 -114.775,21.497 -114.936,21.248 -113.139,19.451 -112.961,19.46 -110.654,17.055 
	-110.174,17.036 -109.408,16.521 -109.434,16.42 -109.854,16.211 -110.031,16.214 -112.182,17.308 -112.301,18.043 -113.465,18.484 
	-113.598,18.408 -115.055,19.045 -114.982,19.089 -114.57,19.057 -114.199,19.276 -114.162,19.544 -116.994,21.77 -117.395,21.752 
	-117.615,22.174 -118.695,22.553 -118.789,22.71 -119.234,22.735 -119.596,22.907 -120.51,22.969 -124.818,33.077 -128.059,34.198 
	-128.443,34.643 -128.357,34.833 -125.756,34.442 -123.51,33.011 -123.756,32.958 -122.893,32.798 -123.277,33.524 -127.436,34.883 
	-127.85,36.143 -129.131,36.509 -129.305,37.21 -130.514,37.854 -130.521,38.018 -134.352,41.288 -147.166,44.089 -147.826,43.954 
	-147.615,43.197 -152.014,42.235 -152.006,43.604 -153.539,42.675 -152.846,42.205 -159.529,38.817 -160.234,38.891 
	-164.963,37.737 -165.404,38.162 -158.062,41.008 -157.781,41.848 -158.268,41.719 -158.486,41.836 -159.078,41.438 
	-159.627,41.864 -159.98,41.389 -160.514,42.105 -161.232,41.816 -162.301,41.817 -162.268,42.932 -162.633,43.141 -163.934,42.941 
	-165.309,43.654 -165.191,43.162 -166.201,42.896 -168.145,43.659 -166.488,43.962 -165.703,43.867 -165.709,44.434 
	-166.523,44.924 -164.84,46.979 -163.699,47.098 -163.172,46.956 -162.402,47.491 -161.631,47.385 -161.158,47.609 -161.285,47.98 
	-162.033,48.27 -161.721,48.469 -162.199,48.348 -162.641,47.962 -163.619,48.294 -164.994,48.162 -166.691,48.5 -168.643,49.898 
	-164.564,51.229 "/>
<polygon fill="#D1D1D1" points="-152.357,41.408 -151.674,40.918 -154.035,39.871 -154.846,40.264 -155.062,40.893 -153.285,41.502 
	"/>
<polygon fill="#D1D1D1" points="167.107,-3.915 167.27,-4.352 167,-4.283 166.791,-4.312 166.631,-3.749 "/>
<polygon fill="#D1D1D1" points="167.217,-4.434 167.844,-4.746 167.514,-4.816 167.18,-4.58 "/>
<polygon fill="#D1D1D1" points="74,5.537 72.998,5.537 72.998,6.062 74,6.062 "/>
<polygon fill="#D1D1D1" points="-175.998,-7.247 -174.998,-7.247 -174.998,-7.808 -175.998,-7.808 "/>
<polygon fill="#D1D1D1" points="-172.998,-2.874 -171.998,-2.874 -171.998,-3.411 -172.998,-3.411 "/>
<rect x="-179.998" y="-90" fill="none" stroke="#000000" stroke-width="0.1" stroke-miterlimit="10" width="359.998" height="180"/>
</svg>
