<?xml version="1.0" encoding="utf-8"?>
<!-- Generator: Adobe Illustrator 15.1.0, SVG Export Plug-In . SVG Version: 6.00 Build 0)  -->
<!DOCTYPE svg PUBLIC "-//W3C//DTD SVG 1.1//EN" "http://www.w3.org/Graphics/SVG/1.1/DTD/svg11.dtd">
<svg version="1.1" id="carted3js" xmlns="http://www.w3.org/2000/svg" xmlns:xlink="http://www.w3.org/1999/xlink" x="0px" y="0px"
	 width="180px" height="90px" viewBox="0 0 180 90" enable-background="new 0 0 180 90" xml:space="preserve">
<path fill="#D1D1D1" d="M175.725-55.694l-5.271-0.334l-0.445,0.673l0.81,0.946l-1.24,0.462l-1.742-1.303l-6.895,0.217l-1.23-0.426
	l0.121-1.121l-0.834-0.651l-6.027,0.039L149.5-59.43l-9.033-1.129l-1.318,0.758l0.722,1.563l-1.636-0.23l-0.735,0.462l-1.938-0.507
	l-1.703,0.441l-1.604-0.744l-0.965,1.71l-2.83-1.951l0.595-0.715l-2.076-2.082l-3.72-0.313l-0.057,1.393l-4.183-0.267l-0.244-0.854
	l-4.807-0.014l-0.439,0.479l-0.51-1.192l-0.899,0.354l-2.72-0.741l4.484-2.279l0.25-1.09l-3.059-1.898l-2.924-0.03l-0.914,0.549
	l-0.269-1.124l-2.268-0.356l1.36-0.583l-1.715-0.784l-3.316,1.982l-0.274,0.977l-1.836-0.037l-2.244,1.161l-0.815-0.484l-2.627,0.2
	l-0.334,0.589l-2.64,0.28l-1.945,1.027l-1.15,0.056l-1.156,1.309l0.812,1.002l-6.311,0.54l0.988,3.336l-1.85-0.965l-2.074,0.091
	L75.9-58.876l0.455,1.188l-1.07-0.297l-0.131-2.582l-0.498,0.041l0.23,1.232l-1.789,1.125l1.297,1.312l-0.557,2.365l1.094,0.12
	l-0.467,0.947l0.584,0.793l-1.133,1.312l-1.1,0.338l-0.398,0.472l-1.143-0.192l2.387-2.834l-1.102-0.882l-0.096-3.169l-0.621-0.519
	l0.738-2.322l-2.648-0.469l-3.01,5.839l1.207,0.146l0.027,0.312l1.018,0.766l-0.67,0.74l-7.961-2.56l-0.52,0.497l1.047,0.854
	l-1.137,0.947l-1.139-0.859l-1.486,0.594l-1.873,0.039L54.721-53.1l-1.24-0.146l0.984-0.865l-0.756-0.069l-5.576,1.876l-0.246,0.858
	l-1.545,0.287l-0.787-0.454l-0.006-0.752l1.266-0.17l-0.57-0.779l-2.799-0.455l0.736,0.874l-0.488,0.821l0.832,0.798l-0.582,0.898
	l-0.934-0.454l-0.924-0.076l-2.33,1.258l0.672,0.909l-0.842,0.297l-2.416-0.764l-0.637,0.467l0.602,0.521l-0.129,0.58l-2.068-0.677
	l-0.129-1.847l-1.629-0.951l0.732-0.168l4.465,0.992l2.742-1.034l-0.834-1.547l-8.158-2.866l-1.031,0.523l-1.098-0.952l1.289-0.415
	l-3.129-1.163l-3.619,0.25l-1.523,1.304l-1.645-0.082L4.984-45.486l0.674,3.566l1.385,0.506l1.332-0.232l1.975-1.168l2.586,3.987
	l1.158-0.042l0.566-0.738l1.215,0.092l0.947-2.536l1.039-0.236l0.92-1.161l-1.668-1.344l4.25-3.521l-0.156-0.749l0.971-0.873
	l1.719-0.361l1.391,0.602l0.105,0.528l-4.34,2.969l0.262,2.076l1.549,0.922l5.199-0.69l1.047,0.5l-1.135,0.572l-4.643,0.296
	l0.086,0.58l0.637,0.354l0.367-0.126l-0.309,1.328l-0.803,0.018l-0.793-0.723l-0.943,0.332l-0.312,2.092l-1.379,0.296l-0.229,0.396
	l-0.965-0.012l-0.076-0.219l-0.998-0.153l-3.502,0.979l-1.602-0.636l-1.58,0.412l0.012-0.316l-1.01-0.209l-0.291-0.796l0.721-0.67
	l0.297,0.102l0.244-0.354l-0.541-0.143l0.209-1.079l-1.156,0.542l-0.879,0.06l-0.455,0.544l0.711,2.311l-0.68,0.437L7.93-37.371
	l-0.838,0.048l-0.195,0.188l-0.83-0.024l-1.369,0.365l-1.391,1.487l-1.676,0.332l-0.299,0.674l-2.33,0.63l-0.943-0.346l0.316,0.904
	l-2.977-0.031l0.102,0.572l3.299,1.485l-0.707,1.903l-6.078-0.233L-9.4-28.9l0.104,3.218l0.447,0.062l-0.059,0.921l0.516-0.072
	l0.527,0.092l0.402-0.17l0.934,0.103l0.654,0.593l0.488,0.054l1.01-0.474l2.225,0.003l0.707-0.504l0.754-0.131l0.217-0.431
	l0.58-0.299l-0.391-0.383l1.09-1.165l1.279-0.146l0.947-0.464l0.061-0.839l3.432-0.038l2.359-0.896l3.998,2.217l0.74,0.046
	l0.434,0.277l0.643,0.125l0.295,0.297l0.416,0.084l0.697,0.733l-0.428,0.704l0.418-0.052l0.533-0.571l0.418-0.039l0.119-0.353
	l-0.723-0.251l0.42-0.441l0.869,0.112l0.555,0.318l0.188-0.244l-2.59-0.947l0.279-0.139l-0.244-0.155l-0.783,0.005l-2.881-1.898
	l0.066-0.576l0.812-0.264l0.795,0.106l-0.258,0.08l-0.021,0.258l0.295,0.247l0.307-0.317l0.643,0.115l0.02,0.25l0.455,0.308
	l-0.199,0.055l4.363,1.802L19.4-26.957l0.553,0.229l0.021,0.149l0.17,0.047l1.52,1.848l0.82,0.283l0.664-0.008l-0.379-0.575
	l0.635-0.07l-0.295-0.336l0.924,0.177l-0.016-0.375l-1.053-0.502l0.377-0.146l-0.723-0.724l0.188-0.15l0.529,0.354L24.4-26.87
	l-0.693-0.386l2.342-0.095l-0.014,0.142l0.316,0.319l1.262-0.581l1.188-0.039l0.182-0.17l-0.873-0.226l-0.441-0.673l1.162-1.688
	l0.305,0.068l0.486-0.159l-0.023-0.189l1.145-0.97l0.928-0.094l0.068,0.283l1.555,0.191l0.289,0.171l-0.957,0.249l-0.176,0.143
	l1.092,0.217l-0.221,0.347l0.557,0.147l2.451-0.553l0.195-0.264l-1.02,0.044l-0.492-0.181l-0.057-0.468l4.158-0.754l0.027,0.168
	l-1.475,0.312l0.559,0.301l-0.828,0.626l-0.73,0.118l4.779,1.885l0.1,0.782l-3.205,0.407l-3.183-0.76l-5.926,0.573l-0.42,0.525
	l-1.539,0.026l-1.111,0.65l0.635,0.321l-0.486,0.521l1.322,1.021l1.092-0.013l0.969,0.345l0.689-0.076l0.232-0.27l1.076,0.021
	l0.809,0.349l1.52-0.073l0.688-0.374l1.445,0.095l-0.377,0.243l0.367,0.293l-1.023,1.729l-0.029,0.008l-0.609,0.911l0.068,0.034
	l-0.783,0.354l-1.582-0.179l-0.232,0.199l-0.271-0.304l-1.592-0.025l-1.182,0.367l-3.75-0.427l-0.244-0.203l-1.684-0.18
	l-0.342-0.275l-2.041-0.043l-1.033,0.589l0.232,0.47l-0.967,0.437l-3.373-0.676l-0.467-0.545l-2.162-0.381l-0.42,0.054l-1.555-0.312
	L10.85-22.72l-0.518-0.011l-0.189-0.344l0.658-0.318l0.133-0.553l-0.348-0.16l0.006-0.3l0.5-0.318l-0.07-0.125l-0.848,0.239
	l0.029-0.33l-0.701-0.078l-1.773,0.304l-0.406-0.152L-4.6-23.707l-0.604-0.272l-0.734-0.003L-6.92-22.93l-1.746,0.546l-1.158,1.271
	l0.25,0.755l-2.123,1.065l-0.93,0.065l-3.709,2.905l0.064,0.192l-0.711,0.448l-0.09,0.495l0.785,0.507l-0.906,2.834l-0.439,0.102
	l0.91,0.611l0.1,0.762l0.307,0.113l-0.006,0.082l1.621,0.611l0.113,0.234l1.332,0.694l0.297,0.582l5.238,1.804l12.037-1L5.89-6.198
	l2.602-0.268L8.48-6.32l0.256,0.076L8.939-6.01l0.457,0.088l0.391,0.347l-0.49,0.999l0.188,0.079L8.789-3.39l3.523,2.608
	l-0.094,0.104l1.01,1.192l-0.363,0.319l0.76,1.525l-1.9,2.841l6.516,8.741l-0.324,0.112l0.453,0.953l0.049-0.088l0.43,0.282
	l0.338,0.012l0.424,0.226l6.162-0.553l6.424-3.176l0.713-1.492l-0.256-0.04l-0.086-0.244l2.883-0.923l0.148-0.237l-0.234-0.099
	l0.191-0.817l-0.18,0.027l-0.598-1.316l5.689-2.399l-0.16-2.726L39.94,1.326l-0.754-1.267l0.275-0.316L39.43-0.393l-0.641-0.19
	l12.312-9.713l-6.992,0.841l-1.402-0.688l0.57-0.127l0.031-0.223l-6.348-4.604l0.219-0.103l-1.662-1.174l-0.033-0.37l0.199-0.1
	L32.31-20.26l0.104-0.056l1.498,1.312l1.002-1.103l-0.291,0.86l0.498-0.004l2.08,1.739l-0.055,0.13l5.668,4.99l-0.121,0.104
	l0.104,0.247l-0.201,0.026l0.879,1.386l1.506-0.033l0.154-0.136l0.262-0.039l0.219-0.143l6.543-1.243l0.217-0.427l1.854-0.359
	l0.553,0.051l0.484-0.151l-0.006-0.222l0.393-0.138l0.621,0.005l0.23-0.116l0.096-0.269l0.625-0.205l0.459,0.002l0.096-0.068
	l0.037-0.652l0.207-0.132l0.453,0.028l1.318-1.054l0.004-0.126l-0.359-0.072l-0.721-0.514l-1.326-0.179l-1.006-0.602l0.088-0.802
	l-0.123-0.051l-2.355,1.312L51.783-16.9l-0.037-0.156l-0.178,0.026l-0.189-0.219l0.199-0.678l-0.303-0.183l-0.273,0.062
	l-0.203,0.725l-0.695-0.688l0.037-0.435l-0.682-0.247l-0.172-0.206l-0.492-0.135l-0.713-0.96l0.09-0.137l-0.209-0.266l0.594,0.029
	l0.373-0.236l0.637,0.2l0.539-0.099l1.404,1.363l3.193,0.812l1.777-0.388l0.479,0.104l0.426,0.715l8.977,0.183l3.271,1.7
	l-0.48,0.203l1.307,0.68l0.705,0.066L72.62-15.4l4.91,7.244l0.738-0.511l0.912-0.149L78.875-8.99l0.455-0.403l0.518-0.026
	l0.467-2.972l1.867-0.357l0.002-0.251l4.838-2.056l-0.057-0.422l1.912-0.109l0.145-0.205l0.67,0.111l0.145-0.103l0.426,0.113
	l0.312-0.313l-0.09-0.231l0.919,0.021l1.664,1.632l0.582,0.069l-0.121,0.2l0.992,1.149l-0.344,0.674l1.18,0.177l1.797-0.661
	l1.175,4.887l0.164-0.309l5.019,3.751l0.709-0.034l-0.375-0.64l-0.354-0.144l-0.123-1.081l-1.757-0.989l-0.604-0.062l-1.146-1.24
	l-0.648-0.017l0.875-2.218l0.881-0.004l-0.148,0.42l1.755,0.235l0.911,0.828l1.58,0.379l-0.28,0.357l0.362,0.34l4.043-1.627
	l-0.323-1.938l-3.216-2.065l2.861-1.479l1.342,0.18l-0.237,0.217l0.264,0.404l0.554-0.032l0.342-0.591l3.021-0.647l0.349,0.186
	l6.971-3.414l0.561-0.053l0.406-0.959l-0.588-0.188l-0.24-0.322l0.629-0.166l-1.666-2.115l-1.076-0.35l1.955-1.121l1.414-0.182
	L122.35-25.1l-1.535-0.274l-1.121,0.47l-0.791-0.19l-0.032-0.296l-0.817-0.109l-0.527-0.449l0.51-0.312l0.98-0.032l2.616-1.156
	l0.529,0.36l-0.793,0.459l0.209,0.264l-0.531,0.312l3.211-0.697l1.058,0.256l0.063,0.111l-0.254,0.361l0.09,0.122l-0.235,0.078
	l-0.273,0.293l0.527,0.167l0.037,0.124l0.291-0.055l0.121-0.125l0.485,0.127l0.687,0.561l-0.742,0.111l0.367,1.498l2.604-0.438
	l0.371-1.099l-2.076-1.608l0.117-0.074l0.03-0.293l2.173-0.771l-0.039-0.498l0.733-0.478l0.379,0.043l0.156-0.236l1.342-0.521
	l0.629,0.348l8.438-8.059l-1.442-0.97l-1.099-0.057l-0.642,0.443l-0.971-0.197l-0.494-0.562l-1.573-0.112l7.069-4.125l6.349-0.126
	l1.237-0.504l1.556,0.155l-0.07,0.735l3.777-0.368l-0.826-0.631l2.502-1.781l2.582-0.373l0.817,1.331l3.14-2.104l1.215-0.097
	l-6.108,4.746l-1.553,0.22l-0.021,6.14l1.441-0.781l0.301-0.87l1.49-0.212l0.35-1.01l1.746-0.459l-0.416-0.393l0.428-0.776
	l0.93-0.034l0.135-1.392l-1.141-0.22l1.486-2.049l1.336,0.143l0.965-0.446l0.455,0.387l2.607-0.823l1.428,0.728l7.035-2.862
	l1.863,0.245l0.258-0.298l-2.074-2.396l1.295,0.089l1.293-0.543v-5.331L175.725-55.694L175.725-55.694z M53.826-24.767l-2.984,0.06
	l-1.643-0.465l-0.344-0.818l0.715-0.92l0.822-0.056l-0.307-0.186l-0.467-0.031l-2.127-1.691l0.1-0.482l-0.908-0.69l0.992-0.764
	l0.971-0.123l0.457-0.447l2.09-0.494l1.85,0.15l-0.002,1.198l-1.723,0.011l-0.037,0.538l-0.975-0.069l0.033,0.238l0.553,0.184
	l0.451,0.647l1.158,0.242l0.191,0.247l-0.246,0.294l0.369,0.624l0.102-0.512l0.805-0.181l1.016,0.818l-0.879,0.222l-0.941-0.169
	l-0.221,0.576l0.664,0.041l-0.258,0.465l0.779,0.228L53.826-24.767L53.826-24.767z"/>
<rect x="-179.998" y="-90" fill="none" stroke="#000000" stroke-width="0.1" stroke-miterlimit="10" width="359.998" height="180"/>
</svg>
